<svg xmlns="http://www.w3.org/2000/svg" viewBox="0 0 600 509.12"><defs><style>.cls-1{fill:#4dbc8a;}.cls-2{fill:#4cbb8a;}.cls-3{fill:#4cbb89;}.cls-4{fill:#4cba89;}.cls-5{fill:#4cb989;}.cls-6{fill:#4cb987;}.cls-7{fill:#4ab989;}.cls-8{fill:#4db989;}.cls-9{fill:#4cbc8a;}.cls-10{fill:#4abb8a;}.cls-11{fill:#4ab784;}.cls-12{fill:#49b685;}.cls-13{fill:#257d5b;}.cls-14{fill:#2a835f;}.cls-15{fill:#45af7e;}.cls-16{fill:#49b888;}.cls-17{fill:#4bb786;}.cls-18{fill:#0bd38d;}.cls-19{fill:#4abb88;}.cls-20{fill:#0cd48e;}.cls-21{fill:#0bd08b;}.cls-22{fill:#46b082;}.cls-23{fill:#0bd58f;}.cls-24{fill:#0bd48e;}.cls-25{fill:#0cd890;}.cls-26{fill:#0bd790;}.cls-27{fill:#0bd28c;}.cls-28{fill:#0aca87;}.cls-29{fill:#0bd28d;}.cls-30{fill:#0bd68f;}.cls-31{fill:#0bd891;}.cls-32{fill:#0bd38e;}.cls-33{fill:#4bba89;}.cls-34{fill:#0bd18c;}.cls-35{fill:#0acf8a;}.cls-36{fill:#0acb88;}.cls-37{fill:#0ace8a;}.cls-38{fill:#0acd8a;}.cls-39{fill:#0bd690;}.cls-40{fill:#0bcb88;}.cls-41{fill:#0ad18c;}.cls-42{fill:#0acf8b;}.cls-43{fill:#4ab887;}.cls-44{fill:#0ad08b;}.cls-45{fill:#4aba88;}.cls-46{fill:#0bcf8b;}.cls-47{fill:#4ab988;}.cls-48{fill:#0bc685;}.cls-49{fill:#0bd58e;}.cls-50{fill:#21ce8e;}.cls-51{fill:#0acd89;}.cls-52{fill:#0acc89;}.cls-53{fill:#0ac785;}.cls-54{fill:#0ac986;}.cls-55{fill:#0ad08c;}.cls-56{fill:#0acc88;}.cls-57{fill:#0ac886;}.cls-58{fill:#0bcd89;}.cls-59{fill:#3cc38c;}.cls-60{fill:#46b081;}.cls-61{fill:#15c586;}.cls-62{fill:#44b685;}.cls-63{fill:#0bcd8a;}.cls-64{fill:#4bb988;}.cls-65{fill:#12ce8b;}.cls-66{fill:#46b886;}.cls-67{fill:#47b584;}.cls-68{fill:#3aba86;}.cls-69{fill:#48b685;}.cls-70{fill:#40b181;}.cls-71{fill:#44b383;}.cls-72{fill:#47b585;}</style></defs><g id="Layer_2" data-name="Layer 2"><g id="Layer_1-2" data-name="Layer 1"><path class="cls-1" d="M397.51,303.76a35.14,35.14,0,0,0-.82,6.06c.66,18.52-1.92,36.4-12.54,52-5.4,7.92-12.1,15-18.73,22-19.33,20.35-38.88,40.48-58.42,60.61-5.51,5.67-11.3,11.06-17.17,16.79-.32-.39-.86-1-1.32-1.59Q252,408.56,215.43,357.46c-7.83-11-13.64-22.84-15.67-36.32a40.79,40.79,0,0,1,.55-16.36c.53-2.09,0-3.28-1.78-4.18a37.5,37.5,0,0,1-3.94-2.16c-3.06-2-5-4.7-4.92-8.56,0-3.67-.1-7.33-.21-11a28.51,28.51,0,0,0-.4-2.86c-6.88,0-13.59-.16-20.3,0a37.24,37.24,0,0,0-24.36,9.52,25.76,25.76,0,0,0-7.22,28.68,15.71,15.71,0,0,1,.66,6.3c-.63,7.8,1,10.69,8.07,13.85a10.19,10.19,0,0,1,2.12,1.8,10.25,10.25,0,0,1-1.94,2,15.68,15.68,0,0,0-7,8.46c-1.15,3.12-2.25,6.26-3.18,9.45a44.42,44.42,0,0,1-15.57,23.26c-4,3.08-5.53,6.93-4.37,11.85a2,2,0,0,1,0,.24c.46,4.12,1.19,8.06,6.29,9.2-2.13.6-4.28,1.13-6.39,1.82-11.94,3.89-22.9,9.85-33.66,16.19a368.94,368.94,0,0,0-42.29,29.23c-13.53,10.75-23,24.6-30.77,39.77C6.27,493.31,4,499.22,1.4,505c-.41.9-.93,1.74-1.4,2.61v-5a19.37,19.37,0,0,0,1.47-2.47c6.82-16,15.13-31.14,27.11-44C37,447.12,47,440.06,57,433c15.54-10.93,31.6-21,49.09-28.61,3.57-1.56,7.27-2.83,11.17-4.33-2.81-3.15-2.76-7.16-3.27-10.94a10.67,10.67,0,0,1,4.35-10.32,44.48,44.48,0,0,0,16.27-24.5c.28-1.05.64-2.07,1-3.09,2-5.88,4-11.73,10.33-14.8-.8-.43-1.31-.72-1.82-1-6.85-3.37-9-7.59-8-15.14a12.56,12.56,0,0,0-.52-5.55c-5.1-15,1.5-29.45,16.85-36.56,7.43-3.44,15.32-4.3,23.4-3.93,3.24.15,6.47.46,9.72.59a23.76,23.76,0,0,0,3.67-.46c-.47-1.31-.77-2.22-1.12-3.12-2.18-5.57-4.15-11.24-6.59-16.7-3.12-7-4.19-14.31-5.06-21.77-1-8.92-2.25-17.83-3.41-26.75a7.27,7.27,0,0,0-.57-1.55l0-1.87,1.85.48c1.22,9.57,2.42,19.15,3.68,28.72.93,7.07,1.47,14.18,4.55,20.85,2.57,5.58,4.41,11.5,6.87,17.13a30.59,30.59,0,0,1,2.51,18c-1.21,6.92,1.82,9.17,8.84,11.61a2,2,0,0,0,.06-.48c-3.39-17.73-6.83-35.45-10.14-53.19a104.91,104.91,0,0,1-2.07-15c-.21-5.55.49-11.13.73-16.7.88-19.87,1.35-39.77,2.71-59.6a113.49,113.49,0,0,1,12.32-45.19c3.3-6.3,6.73-12.49,12.76-16.68a6.43,6.43,0,0,1,2.08-.54,10.41,10.41,0,0,1-1,1.92c-3.22,3.91-6.93,7.49-9.58,11.74-2.28,3.65-3.37,8-5,12.12l1.09.53c3.45-7.17,7.33-14,12.95-19.73s11.75-10.78,18.64-13.17c-1.31,1.58-3,3.75-4.82,5.77-7.7,8.49-11,19-14,29.74-.06.21.27.53.41.8v1.37L215,125.54a81.41,81.41,0,0,1,12.8-33.21c-14.9,10.67-23.13,25.19-25.36,43.21-.36,3-.61,5.94-.92,8.91l-.78-.06V123a60.47,60.47,0,0,0-3.29,9.54c-5.2,19.59-4.8,39.71-5.51,59.71l0,1.92q-.74,16.08-1.45,32.16c-.12,2.82-.55,5.72-.06,8.44q5.9,32.14,12.15,64.22a10.24,10.24,0,0,0,2.14,4.1c1.63,2.08,3.52,4,5.3,5.94l-1.76,1.16-6.84-6c-.07,5.18-.66,10.28-.13,15.25,1.45,13.4,7.14,25.24,14.85,36.07q36.12,50.77,72.48,101.38c.48.66,1,1.28,1.59,2,.63-.55,1.15-1,1.6-1.42,10.71-11,21.5-21.84,32.1-32.9,17.27-18,34.39-36.22,51.62-54.3C386.21,359,392,345.5,393.86,330.36c1-8.14.74-16.44,1.06-24.66l1.53-2.59Z"/><path class="cls-1" d="M397.51,303.76l-1.06-.65-1-.6c2.89-3.76,3.22-8.3,3.77-12.73,1.79-14.62,3.91-29.22,5.08-43.89,1.41-17.69-2.18-35.19-3.3-52.78l-.07-1.52c.26-14.35-1.28-30.2-3.68-34.8-.49,4.6-1.18,8.54-1.24,12.5s.49,8,.77,12c-4.08-10.08-5.14-20.57-4.38-31.43l-2.88,5.34.47-5.9c.59-.55,1.23-1.06,1.76-1.66,2.38-2.64,5-5,8.63-6.17-6.7,5.38-6.52,12.66-5.91,20.05.73-1.62,1-3.38,1.55-5a10.63,10.63,0,0,1,1.71-2.49c.56.75,1.47,1.44,1.61,2.26.95,5.48,2.07,11,2.5,16.49,1,12.69,1.57,25.42,2.44,38.12.54,8,1.69,16.08,1.89,24.14.4,16.62-1.88,33-4.44,49.43-.73,4.66-1.45,9.31-2.18,14.05,5.6-.76,9.18-4.94,9-10.37-.16-4.9-1-9.84-.55-14.68.69-8,2.48-16,3.17-24a163.06,163.06,0,0,0,.63-23.69c-.4-6.72-.72-13.38,1-19.83,2.77-10.17,5.73-20.34,9.38-30.22a42.81,42.81,0,0,0,.39-29.06c-1-3.05-2-6.08-3.2-9.54,7.07,3.33,10.88,9.39,15.62,14.57A57.47,57.47,0,0,0,428.18,141a88.32,88.32,0,0,0-9.23-9.12c-3.1-2.71-6.5-5.08-10.33-8,9.81,1.65,15.75,8.36,22.57,13.6l.59-.68-12.9-11.67c1.14.17,2.61-.06,3.35.57,4.34,3.69,8.5,7.58,12.72,11.4,1.68,2.82,3.37,5.63,5,8.47a23.19,23.19,0,0,1,1,2.15l-.52.44-11.82-10.62-.51.35c5.07,6.92,10.92,13.5,10.26,22.95-4.33-7-8.95-13.66-14.93-19.12,1,5.54,2.26,11,3.06,16.6.75,5.18-.26,10.22-1.87,15.21-3.58,11.07-7.15,22.14-10.29,33.33-1.66,5.94-1.28,12.12-1,18.33a220,220,0,0,1-.74,26.42c-.49,6.44-2.16,12.8-2.8,19.24-.42,4.26,0,8.61.1,12.92,0,1.83.86,2.21,2.7,2.15q11.08-.4,22.18-.35A21.46,21.46,0,0,1,447.54,290c5.11,3.72,10.63,6.95,14.31,12.3,6,8.79,9.09,18.37,7.84,29.19-.75,6.51,1.47,12.32,5.36,17.48,1.95,2.59,4.26,4.91,6.12,7.56,5.52,7.85,3,16.7-5.83,20.54-3,1.3-6,2.58-9,3.64a2.39,2.39,0,0,0-1.89,2.94,7,7,0,0,1,0,2c-.26,1.67.59,2.25,2.07,2.74,10.65,3.54,21.3,7.1,31.89,10.81,5.17,1.82,10.23,3.95,15.32,6a63.38,63.38,0,0,1,21.23,13.66c18.61,18.41,36.77,37.21,52,58.59,4.32,6.08,7.77,12.77,11.64,19.18.41.69.91,1.32,1.37,2,0,3.09-.15,6.18.06,9.25.11,1.58-.73,1.23-1.56,1.25,1.26-7.13-1.54-13.09-5.13-19A253.68,253.68,0,0,0,562,449.44c-10.43-11.21-21.28-22-32.07-32.91-5.41-5.45-12.51-8.22-19.5-10.82-14.95-5.57-30.06-10.73-45.13-16-1.78-.62-2.69-1.21-2.63-3.37.17-6,.05-5.95,5.64-8.13a69.94,69.94,0,0,0,7.33-3.14c7.07-3.77,8.84-10.54,4.43-17.2-1.64-2.48-3.76-4.65-5.63-7-5.18-6.51-6.8-13.81-6.26-22.17.83-12.69-3.92-23.52-13.75-31.72-5-4.19-10.13-8.8-17-9.37s-13.6-.28-20.41-.35c-.75,0-1.49.15-2.24.2-3.87.28-4.3.26-4.39,3.95-.1,4.67-3.94,5.57-6.6,7.72a3.3,3.3,0,0,1-1.6.66A5.41,5.41,0,0,0,397.51,303.76Z"/><path class="cls-2" d="M135.48,509.1c-2-5.1-4.37-10.08-5.85-15.33-1.77-6.27-.5-12.69.28-19.07,1.47-11.88,2.55-23.8,4-35.68,1.3-10.39,2.94-20.75,4.42-31.12.14-1,.27-2,.44-3.23l-11.28-4.48a6.8,6.8,0,0,1-1.61-.66c-.3-.21-.37-.74-.54-1.13.4-.11.88-.44,1.2-.32,4.43,1.67,8.88,3.31,13.21,5.22.53.23.69,2,.54,3-1,7.08-2.44,14.11-3.31,21.2-1,8.25-1.48,16.57-2.41,24.83-.91,8.1-1.81,16.21-3.25,24.22-1.86,10.34-.64,20,4.54,29.19.61,1.08,1.06,2.25,1.59,3.37Z"/><path class="cls-2" d="M35,509.1c1.42-7.15,2.68-14.34,4.33-21.44a117.08,117.08,0,0,1,4.3-14.07c1.14-3,3-5.81,4.51-8.71l1.27.39c-7.15,12.12-6.71,25-4.12,38.12.24-.62.52-1.23.7-1.87a160.81,160.81,0,0,1,13-31c.32-.59,1.08-.95,1.63-1.42a7,7,0,0,1-.17,2.17c-4,9.49-8.18,18.91-12,28.45-1.21,3-1.61,6.26-2.38,9.4H44l-2.67-21.47-.65-.12L36.5,509.1Z"/><path class="cls-3" d="M450,509.1c.64-7.69,2-15.41,1.75-23.08-.3-10.53-1.53-21.06-2.81-31.53a21.22,21.22,0,0,0-7.66-13.9,4.92,4.92,0,0,1-1.54-2.21c-1.38-4.87-2.66-9.76-3.9-14.67-.11-.44.35-1,.55-1.52l.6.11c1.13,4.24,2.09,8.53,3.47,12.68a14.21,14.21,0,0,0,3.25,5.4c4.76,4.83,7,10.81,7.55,17.26,1,11.51,1.76,23.06,2.23,34.6.16,4-.82,8.09-1.23,12.15-.16,1.56-.18,3.14-.26,4.71Z"/><path class="cls-3" d="M498.94,509.1c-1.59-9.5-2.85-19.08-4.87-28.49-2.69-12.59-6-25.05-9-37.58a10.75,10.75,0,0,1,.07-2.88,9.72,9.72,0,0,1,1.54,2.39c5.27,19.76,10,39.64,13.08,59.88.34,2.21.45,4.46.66,6.68Z"/><path class="cls-4" d="M285.47,509.1l6.47-4.68c-1.11-1.72-2.11-3.44-3.28-5-1.89-2.61-3.32-5.33-3.21-8.71,0-.63-.65-1.78-1.14-1.86-4.31-.73-8.65-1.27-13.94-2L277,509.1h-2c-1.78-6.64-3.59-13.28-5.33-19.93-.33-1.27-.21-2.71-2.11-2.83-.25,0-.46-.79-.93-1.7,6.78.89,13,1.7,19.21,2.57.43.06,1.14.69,1.12,1-.51,6.69,4.12,11.12,7.08,16.28a1.71,1.71,0,0,1,.09.49L289,509.1Z"/><path class="cls-4" d="M509.44,509.1c-.25-7.29.07-14.67-.88-21.87-1.8-13.75-4.33-27.41-6.52-41.11a4.77,4.77,0,0,1,.5-3c5.17,21.71,9,43.56,8.9,66Z"/><path class="cls-3" d="M198,509.1c-2.29-7.35-4.18-14.85-7-22-5.11-13.2-12.25-25.25-22.2-35.49-.4-.4-.45-1.15-.66-1.73l1.21-.89c.93,1.23,1.79,2.53,2.81,3.68,13.09,14.75,21,32.13,26.29,50.92q.76,2.76,1.51,5.52Z"/><path class="cls-4" d="M433,509.1c-6.09-13.61-7.31-28.2-8.43-42.78-.52-6.88-.74-13.78-1.1-20.67a3,3,0,0,1,0-1,14.82,14.82,0,0,1,.72-1.58c.3.48.84.93.88,1.43.2,2.65.28,5.31.38,8,.6,15.46,1.6,30.89,5.59,45.93,1,3.66,2.64,7.13,4,10.69Z"/><path class="cls-5" d="M100.49,509.1c-1.38-10.58-.37-21.12,1.15-31.56,1.45-9.94,3.58-19.78,5.47-29.65a3.88,3.88,0,0,1,1.63-2.29c-4.15,21-8.41,41.95-6.75,63.5Z"/><path class="cls-4" d="M80,509.1c-2.93-6.75-2.75-13.81-1.7-20.85,1.89-12.78,6.93-24.43,13.3-35.56a7.24,7.24,0,0,1,1.58-1.48l.63.63c-2,3.89-4.08,7.74-5.92,11.7-4.64,10-8.45,20.37-8.38,31.58,0,4.67,1.29,9.32,2,14Z"/><path class="cls-6" d="M409.45,509.1c.78-17,4.11-33.62,7.27-50.27a7.28,7.28,0,0,1,1-1.9l.9.33c-.55,2.89-1.21,5.76-1.63,8.67q-3.08,21.58-6.05,43.17Z"/><path class="cls-5" d="M393,509.1c2-16.17,7-31.59,12-47,0-.11.72,0,1.43,0-1.44,4.79-3,9.33-4.16,14-2.45,9.75-4.7,19.55-7,29.34a25.46,25.46,0,0,0-.3,3.72Z"/><path class="cls-7" d="M426,509.1c-5.77-14-7.73-28.64-7.58-43.65a12.84,12.84,0,0,1,.13-2.24c.05-.3.47-.53.73-.79.26.26.71.49.75.78a18.78,18.78,0,0,1,.06,2.49c-.13,14.43,1.65,28.52,7.22,42a5.62,5.62,0,0,1,.19,1.44Z"/><path class="cls-8" d="M165,509.1q-5.23-16-10.48-32c-.56-1.74-1.14-3.48-1.59-5.25a5.6,5.6,0,0,1,.21-1.87c.44.45,1.12.82,1.3,1.35q4.08,12.44,8.06,24.9c1.37,4.26,2.67,8.55,4,12.82Z"/><path class="cls-1" d="M149.48,95.62a76.94,76.94,0,0,1,27.78-26.87c-11.83,3.78-21.28,11-29.64,20.09.14-.55.24-1.11.42-1.65s.48-1.24.76-1.84c5.38-11.38,14.38-19,25.55-24.21a68.17,68.17,0,0,1,22.8-6,17.17,17.17,0,0,0,7.24-2.35c9-5.17,18.15-10.11,27.24-15.15a12.59,12.59,0,0,0,2.91-1.9c5.9-6.09,13.17-9.78,21.14-12.29A4.15,4.15,0,0,0,257.86,22c-2.9.24-5.81.37-8.69.75-9.94,1.28-19.68,3.31-28.77,7.78a4.91,4.91,0,0,1-1.92,0c.42-.52.74-1.23,1.29-1.53C238,19,257.32,12.36,278.39,12.28c4.79,0,9.58,1,14.36,1.55a3.74,3.74,0,0,0,2.19-.19,13.25,13.25,0,0,0-2.11-1.17c-5.71-2-11.45-3.93-17.18-5.88l-2.73-1c2.51-1.08,5-.66,7.56,0a17.51,17.51,0,0,0,2.15,1,108.43,108.43,0,0,1,34.7,19.11,10.92,10.92,0,0,1,1.36,1.59L306,20.65A8,8,0,0,0,304,19.24c-4.4-1.43-8.77-3.19-13.29-4-15.77-3-31.07-.41-46.07,4.68-1.69.57-3.35,1.25-5.55,2.08a5.49,5.49,0,0,0,1.29.4c8.41-.84,16.82-1.76,25.24-2.5,1.6-.14,3.26.42,4.88.65L270,21.64a10.5,10.5,0,0,1-1.43.4c-12.48,2-24.05,5.94-33.17,15.27a10,10,0,0,1-2.53,1.57c-8,4.35-16.07,8.42-23.83,13.1a38.18,38.18,0,0,1-15,5.28c-14.43,1.94-27.17,7.63-37,18.76-.73.82-1.38,1.72-2.06,2.58l.42.47c13.56-10.84,28.63-17.15,46.5-16-.29.44-.35.66-.47.69a10.72,10.72,0,0,1-1.68.37C180.9,66.51,166.3,75.83,155,90.72a34.45,34.45,0,0,0-2,3.36C152,94.9,151.62,97.32,149.48,95.62Z"/><path class="cls-1" d="M280.48,5.62c-2.53-.64-5.05-1.06-7.56,0l-10.43-1.1c-1.12-.16-2.24-.37-3.37-.46-2.2-.17-4.41-.27-6.62-.4l8.43-.58H274c12.75.67,25.33,2.38,36.92,8.09,5.39,2.66,10.36,6.16,15.46,9.24-.08-8.06-7-13.09-10.64-20.43.87.46,1.43.59,1.7.93,2.78,3.5,5.6,7,8.22,10.57,4.08,5.65,7.48,11.82,13.2,16.13,3.26,2.45,6.57,4.85,9.68,7.48a53.06,53.06,0,0,1,7.26,7.11,111.52,111.52,0,0,0,29.11,26,111.41,111.41,0,0,1,13.67,10c6.23,5.26,8,12,5.45,19.83-.25.79-.48,1.59-.73,2.39-1.51,4.74-1.51,4.74,2.68,7.63,6.29,4.34,12.73,8.48,18.82,13.09,4.57,3.47,7.52,8.41,10,13.53a6.43,6.43,0,0,1,.12,2.46c-4.22-3.82-8.38-7.71-12.72-11.4-.74-.63-2.21-.4-3.35-.57l-9.38-6.65c6.2,1.08,11.32,4.39,16.74,7.2a13,13,0,0,0-3.13-3.69c-5.75-4.1-11.57-8.11-17.41-12.08-6.59-4.49-5.82-4.82-3.83-10.46.14-.39.21-.8.35-1.19,2.93-8,.65-14.62-5.82-19.74A158.3,158.3,0,0,0,381.56,68c-10-6.17-18.25-14.12-25.73-23.07a71.51,71.51,0,0,0-9.13-9.12c-6.25-5.2-13.39-9.4-17.89-16.49-.06-.09-.29-.06-.76-.14v6.12C312.16,11.88,296.09,5.28,280.48,5.62Z"/><path class="cls-9" d="M168.92,207.14q-.93-6.48-1.85-13a1.41,1.41,0,0,0-.5-1q-1.29,10.94-2.57,21.88h-.58c-.23-4.74-.47-9.48-.69-14.23-.39-8.3-1.27-16.63-1-24.92.2-6.25,1.74-12.47,2.93-18.66a5.41,5.41,0,0,0-1.33-5.16c-5-5.81-9.31-12.07-10.42-19.83a23.7,23.7,0,0,1,.57-9.56c3.19-11.2,9.47-20.83,16.24-30.15a50.84,50.84,0,0,0,3.93-5.87c-.51.31-1.06.57-1.53.92a96.84,96.84,0,0,0-19.56,19.85c-.55.72-1.15,1.42-1.72,2.13-1.21-1.78.15-3,1-4.2a114.17,114.17,0,0,1,22-21.74l3.74-.56.58.73c-.87,1.31-1.64,2.68-2.61,3.91-8.33,10.55-16,21.5-20.2,34.45a21.8,21.8,0,0,0-.88,9.25c1,7.59,5,13.87,10,19.43a6.48,6.48,0,0,1,1.65,6.93c-3.38,11.38-3.31,23-1.49,34.75q.93-6.84,1.87-13.67a2.69,2.69,0,0,1,.78,1.62c.7,6.61,1.37,13.23,2.08,19.85a10.34,10.34,0,0,0,.51,1.76v4Z"/><path class="cls-10" d="M173.89,83.64a114.17,114.17,0,0,0-22,21.74c-.89,1.2-2.25,2.42-1,4.2L141.57,126l-.48,0c.57-2.72.83-5.55,1.76-8.14,3-8.29,8.1-15.27,14.12-21.57,2.17-2.26,4.75-4.13,7.14-6.18L163,89c-9.83,6.61-17.66,15-22.46,26.16,2.14-7,4.51-13.77,8.94-19.57,2.14,1.7,2.48-.72,3.52-1.54a9.69,9.69,0,0,0,1.69-.89A166.48,166.48,0,0,1,187,72.29a22.65,22.65,0,0,1,2.17-.84l.31.59c-.77.55-1.54,1.09-2.3,1.65Z"/><path class="cls-11" d="M168.92,207.14l1.06-1a12,12,0,0,0,1-3.12c.08-7.57,0-15.15,0-22.72.35,2.42.68,4.85,1,7.27l2.34,15.58-1.85-.48c-.33.25-.93.5-.94.76,0,3.94,0,7.89,0,11.84l-.5,14.84c-.85-7.19-1.71-14.37-2.52-21.56A3.92,3.92,0,0,1,168.92,207.14Z"/><path class="cls-12" d="M171.54,215.24c0-4,0-7.9,0-11.84,0-.26.61-.51.94-.76l0,1.87c-.17,2-.4,4-.51,5.93-.09,1.55-.05,3.1-.07,4.66Z"/><path class="cls-13" d="M171.54,215.24l.36-.14v16.8l-.76,0c0-.62-.07-1.23-.1-1.85Q171.3,222.65,171.54,215.24Z"/><path class="cls-14" d="M252.5,3.68c2.21.13,4.42.23,6.62.4,1.13.09,2.25.3,3.37.46H247L247,4Z"/><path class="cls-15" d="M274,3.1h0Z"/><path class="cls-1" d="M415.06,365.93l-2.66,3.77.59.56c1.82-1.61,3.72-3.13,5.42-4.84,9.68-9.72,17.91-20.6,25.54-31.95,1.35-2,2.57-4.11,4.05-6,3.05-4,3.08-8.15,1.1-12.46a25.15,25.15,0,0,0-3.25-5.29c-4.61-5.71-10.55-9.9-16.64-13.8a15.64,15.64,0,0,0-12-2,2.73,2.73,0,0,1-2-.62c2.93-1.76,6-1.59,9.1-1a16.26,16.26,0,0,1,5.6,2c6.34,4.13,12.68,8.37,17.37,14.45a28.18,28.18,0,0,1,4.15,7.88,12,12,0,0,1-1.58,11.14c-9,13.44-18.1,26.77-29.62,38.25a33.18,33.18,0,0,1-5.59,5c-7.41,4.59-12.33,11.51-17.68,18.08-11.31,13.88-22.56,27.86-36,39.77-4.6,4.06-10.06,7.16-14.64,11.25-11.42,10.2-22.53,20.75-33.84,31.08-5.28,4.82-10.73,9.47-16.06,14.16l6.38-.82c.14.33.27.48.25.6-.16,1.07-.34,2.14-.52,3.21a22.88,22.88,0,0,0,3.33-.53,40.17,40.17,0,0,0,15.3-9.18c14.53-13.21,29.13-26.37,43.41-39.86,20.21-19.1,40-38.66,60.3-57.67,9.15-8.57,20-14.8,32.51-17.09,3.82-.7,7.91-.06,11.85.19,1.13.07,2.21.93,3.31,1.43l-.1.69c-.56.07-1.2.36-1.66.17-7.94-3.18-15.42-.9-22.76,2-11.26,4.49-20.46,11.95-29.14,20.24q-44.77,42.81-89.78,85.37c-5.92,5.58-12.06,11.06-19.76,14.24a32.83,32.83,0,0,1-5.46,1.69c-2.58.55-3.73-.77-3.54-3.4-3.72.52-7.25,1.06-10.79,1.49a5.33,5.33,0,0,1-1.85-.52,11.89,11.89,0,0,1,1.4-1.05c2.6-1.43,5.56-2.43,7.77-4.32,8.35-7.13,16.54-14.46,24.64-21.88,11.41-10.45,22.6-21.09,35.15-30.3,7.5-5.5,13.83-12.75,20.05-19.77,9.06-10.21,17.86-20.69,26.11-31.56A110.82,110.82,0,0,1,412,367.5a30,30,0,0,1,2.53-2.07Z"/><path class="cls-9" d="M365.6,492c6.37-6,12.31-11.43,18.15-17,6.39-6.09,12.68-12.29,19.07-18.38.71-.68,1.44-2.44,3.15-.56-15.59,14.81-30.63,30.16-47.27,43.77l-.47-.51a32.28,32.28,0,0,0,3.61-3.9,8.37,8.37,0,0,0,1.67-4.37c-.1-3.57-.87-7.11-1-10.67a4.37,4.37,0,0,1,1.55-3.27c6.57-4.53,13.26-8.9,20-13.26a29,29,0,0,1,4.59-2.46c8.49-3.59,15.4-9.43,21.26-16.26,7.46-8.71,14.22-18,21.33-27a5.61,5.61,0,0,1,2.59-2.05c12.94-3.4,22-11.61,28.9-22.71.26-.42.52-.85.8-1.26a11.3,11.3,0,0,1,1.1-.91c-.08,1.27.1,2.05-.19,2.54-6.73,11.24-15.76,19.66-28.6,23.54a8,8,0,0,0-4,3c-8.49,12.41-17.65,24.24-29.1,34.12a60,60,0,0,1-14.54,9.09c-3.59,1.64-6.69,4.33-10,6.51-4.25,2.77-8.56,5.44-12.77,8.27a3.16,3.16,0,0,0-1.29,2.33C364.4,484.17,365,487.76,365.6,492Z"/><path class="cls-9" d="M259.44,475.59a7.4,7.4,0,0,1-1.93-1.35c-5.33-7.14-10.55-14.37-15.89-21.5-23-30.67-46-61.28-71.68-89.8-5.16-5.75-10.85-11-16.44-16.39-1.79-1.7-4.08-2.86-6.09-4.33a8.2,8.2,0,0,1-1.23-1.49l.6-.69c1.61.94,3.46,1.61,4.78,2.86,7.07,6.68,14.42,13.13,20.92,20.34,25.94,28.82,49.12,59.86,72.21,91l13.85,18.66c.48.65.93,1.34,1.4,2Z"/><path class="cls-9" d="M408,406.21a78.91,78.91,0,0,1,4.58,7.09c3.22,6.33,1.52,12.4-4,16.82-4.81,3.83-9.36,8-13.93,12.11a6.18,6.18,0,0,0-1.43,2.8c-.56,1.91-.93,3.87-1.47,6.2l-3.9-2.15a15.32,15.32,0,0,0-1.9,2.28c-1.88,3.4-4.94,4.68-8.57,5.27-2.62.42-5.17,1.21-7.77,1.76a24.68,24.68,0,0,1-2.87.28l-.28-.7a6.54,6.54,0,0,1,1.69-1,72.46,72.46,0,0,1,9.23-2.12,10.14,10.14,0,0,0,7.73-5.2c1.35-2.13,2.78-3.68,5.2-1.07.28-.52.56-.79.58-1.08.25-4.48,3-7.34,6.25-10,3.57-2.86,6.93-6,10.47-8.87,4.82-4,6.16-8.25,3.57-13.91-1.39-3-3.57-5.71-5.75-9.11,5.17-3.53,10.59-7.32,16.1-11,8-5.34,16-10.76,24.22-15.83,5.14-3.17,10.58-5.88,16-8.54a17.09,17.09,0,0,1,6-1.39c3.76-.31,5,1.8,3,6-.35-1.16-.76-1.79-.68-2.35.22-1.63-.58-2.19-2-2.05a12.36,12.36,0,0,0-4.15.74,173.25,173.25,0,0,0-15.52,7.82c-9.81,5.93-19.46,12.14-29,18.44C415.36,400.19,411.7,403.35,408,406.21Z"/><path class="cls-2" d="M241.76,477.94c-8.83-11.59-17.49-23.3-26.53-34.73-23.44-29.65-47.06-59.16-70.58-88.75a16.72,16.72,0,0,1-1.54-3.08,13.1,13.1,0,0,1,2.84,2.06q44.9,56.7,89.69,113.47c2.26,2.87,4.36,5.88,6.45,8.89a5.21,5.21,0,0,1,.37,2Z"/><path class="cls-9" d="M245.5,442.55c-.44-.69-.92-1.36-1.32-2.07-11.58-21.05-26.08-40-42.09-57.81-11-12.17-22.47-23.89-34.07-35.47-7.65-7.63-15.9-14.66-23.89-21.95-.24-.23-.59-.4-.72-.67a12.76,12.76,0,0,1-.56-1.61c.55.12,1.25.06,1.62.38,3.78,3.26,7.55,6.54,11.24,9.9,25.17,22.9,48.85,47.22,69.11,74.63,7.54,10.22,14,21.23,20.93,31.9a10.52,10.52,0,0,1,.8,2.49Z"/><path class="cls-2" d="M123.45,380.68a10.07,10.07,0,0,1,2.43,1.15c7.46,6.39,15.07,12.62,22.26,19.31q26.34,24.48,52.32,49.34a148.84,148.84,0,0,1,22.31,26.84c1.06,1.64,1.83,3.47,2.73,5.21l-.71.51c-.4-.19-1-.27-1.16-.58-4.37-9.17-11.15-16.53-17.91-23.88-21.58-23.44-45.35-44.57-69.31-65.5-4.44-3.88-8.93-7.7-13.39-11.54Z"/><path class="cls-2" d="M207.77,369.69Q194.39,352.28,181,334.86q-16.87-22-33.7-44.05c-.58-.76-2.11-1.64,0-2.81q6.27,8.17,12.54,16.36,18.3,23.89,36.59,47.81c4.27,5.59,8.45,11.25,12.67,16.88Z"/><path class="cls-3" d="M272.72,484a5.54,5.54,0,0,1-.94-1.38c-3.43-11.74-9.25-22.43-14.57-33.34-4.16-8.52-8.45-17-12.63-25.48a5.3,5.3,0,0,1-.14-2c.52.37,1.28.63,1.53,1.13,9.51,18.76,19.67,37.22,26.69,57.14a24,24,0,0,1,.77,2.63,3,3,0,0,1-.06.94Z"/><path class="cls-10" d="M207.77,369.69l1.32-.64c8,10.41,16,20.8,23.91,31.26.42.55.05,1.7.05,2.57-.72-.29-1.71-.37-2.11-.9q-10.51-13.75-20.86-27.64A28.78,28.78,0,0,1,207.77,369.69Z"/><path class="cls-16" d="M409.16,324.76c.61.08,1.39,0,1.82.29,6.15,4.82,12.16,9.85,16.22,16.67,1.24,2.07,1.75,4.59,2.45,6.94.11.39-.51,1-.79,1.51a9.92,9.92,0,0,1-.83-1.44c-.81-2.14-1.26-4.48-2.41-6.41-3.55-5.94-8.85-10.27-14.08-14.65-.88-.73-1.73-1.47-2.6-2.21Z"/><path class="cls-17" d="M398.59,343.5c5.61-3.35,13.11-2.16,18.65,3.3a48.46,48.46,0,0,1,5.24,6.93c.29.4.1,1.14.12,1.72a4.87,4.87,0,0,1-1.5-.86c-1.82-2.25-3.3-4.84-5.39-6.8-3.94-3.68-8.48-5.77-14.06-3.49-.89.37-2.06.05-3.09.05Z"/><path class="cls-9" d="M394.92,305.7c-6.17,6.41-12.37,12.78-18.5,19.22-13.67,14.35-27.27,28.76-41,43.05a6.7,6.7,0,0,1-4.31,1.82c-20.91,0-41.81-.14-62.72-.3a4.59,4.59,0,0,1-2.95-.94c-8.2-8.28-16.3-16.65-24.43-25l1.48-.95c4.09,4.14,8.2,8.25,12.26,12.4,3.66,3.75,7.21,7.61,10.95,11.28a5.23,5.23,0,0,0,3.31,1.27c9.4.18,18.8.22,28.19.3,11,.09,22,.22,32.94.19a6,6,0,0,0,3.94-1.47c12-12.54,24-25.19,35.9-37.82l-.05.07q10.88-11.34,21.75-22.66c1.21-1.26,2.49-2.44,3.74-3.65l1,.6Z"/><path class="cls-9" d="M218,121.73a28.53,28.53,0,0,0,1.67-2.68c8.87-18.44,22.42-32.16,41.08-40.73a6.4,6.4,0,0,1,2.7-.56c-18.23,11.38-26,29.51-31.73,48.88,1.58-3.23,3.11-6.48,4.78-9.67a9.34,9.34,0,0,1,1.91-2c.08.24.15.48.23.72-.72,1.65-1.51,3.28-2.14,5q-5.06,13.45-10.06,26.93l-1.85-.5,4-17.84q3-8.78,6-17.54c0-.13,0-.26.07-.39a12.71,12.71,0,0,0,.78-1.27,98.45,98.45,0,0,1,12.83-21.34c.1-.12,0-.4,0-1-.85.54-1.47.89-2,1.31a77.77,77.77,0,0,0-19.76,21.31c-1.82,2.94-3.22,6.14-4.82,9.22L218,123.1Z"/><path class="cls-18" d="M192,192.25c1.95-1.93,4-2.23,5-.43.52.9.51,3-.1,3.46-1.47,1.15-1.38,2.47-1.4,3.93-.07,7.5-.21,15-.17,22.49,0,1.1.78,2.19,1.21,3.28,0,.07.11.12.17.18,2.44,2.51,5.83,4.63,7,7.63s.42,7,.44,10.61c0,6.33,0,12.67.06,19a4.41,4.41,0,0,0,1.19,2.66c1.3,1.4,1.63,2.77.23,4.13a2.69,2.69,0,0,1-4.2-.12c-1.33-1.46-.9-2.81.49-4.11a3.4,3.4,0,0,0,1.06-2.19q.11-14,0-28a7.87,7.87,0,0,0-1-2.63c-.06-.14-.23-.24-.35-.36-2.48-2.57-6-4.75-7.18-7.83s-.31-7.2-.28-10.86c0-4.5.12-9,.2-13.49,0-1.64.37-3.35-1.71-4.16-.35-.14-.47-.83-.7-1.27Zm2.93-1.18c-.92,1.08-1.88,1.71-1.86,2.32a2.29,2.29,0,0,0,1.59,1.64,2.32,2.32,0,0,0,1.78-1.44C196.52,193,195.65,192.25,194.9,191.07Zm11.3,76.24c-1.25-.8-2-1.63-2.61-1.56s-1.16,1-1.74,1.6c.55.51,1.1,1.43,1.66,1.44S204.91,268.07,206.2,267.31Z"/><path class="cls-19" d="M242.48,342.6l-1.48.95q-11.75-11.82-23.48-23.65c-3.14-3.19-6.18-6.47-9.26-9.71L210,309,226,325.12c.49.51,1,1,1.48,1.51Z"/><path class="cls-20" d="M218,123.1l3.58-3.52a13.59,13.59,0,0,0,2-1.33c2.16-2.07,4.27-4.19,6.37-6.32a3.45,3.45,0,0,1,4.65-.59c0,.13-.05.26-.07.39-1.12.2-2.63,0-3.31.68C227,116.5,223,120.79,218.91,125l-4.48,4.61c-2.09,1.25-4.3,2.25-4.11,5.46.05.82-1.57,2.24-2.66,2.53a2.16,2.16,0,0,1-2.72-2.39c.15-1.12,1.39-2.93,2.21-3,4.51-.21,6-3.64,7.88-6.72Zm-7.84,11.74c-1.24-.76-2-1.61-2.61-1.51a2.49,2.49,0,0,0-1.47,1.78c-.07.41,1,1.42,1.56,1.4S209,135.68,210.14,134.84Z"/><path class="cls-2" d="M370,98.57a42.43,42.43,0,0,1,16.69,10.2c4.34,4.21,8.06,9,12,13.64a15,15,0,0,1,1.19,2.19l-5.92-.5-.29.43a7.86,7.86,0,0,1,1.38,1c2,2.18,1.85,3.28-.64,4.86a17.67,17.67,0,0,0-7.68,10.46,21.21,21.21,0,0,1,14.16-4.95c-1.16.86-1.91,1.44-2.68,2a21.29,21.29,0,0,0-7.8,9.21,10.5,10.5,0,0,0-.44,2.19l-.47,5.9q.25,4.46.53,8.91l-1,.55a19.22,19.22,0,0,1-2.16-10.26c0-.91,0-1.82-.07-2.72,1.89-4.14,3.79-8.27,5.61-12.26-2.68,1.26-5.28,3.2-6.34,6.4-.72,2.14-.69,4.54-1,6.83-1.18,1.49-1.55.71-1.61-.61-.4-9.53,1.89-17.86,10.47-23.35a1.31,1.31,0,0,0,.37-.33,6.64,6.64,0,0,0,.4-.88c-6.63-5.11-15.07-4.7-22.52-7.64l24.4,2.73c-4.7-7.15-10.57-12.57-17.06-17.39l-1.59-.62-4.85-2.37-1.62-1Z"/><path class="cls-21" d="M401,193.11c-2,1.34-2.62,3.13-2.62,5.59q0,20.85-.32,41.71a6.3,6.3,0,0,1-1.56,3.63c-1.72,2-3.74,3.78-5.63,5.65l-.71-.7a27.36,27.36,0,0,1,3.22-3.32c3-2.25,3.78-5.1,3.74-8.81-.13-13.16.13-26.31.16-39.46a3.88,3.88,0,0,0-.92-2.52c-1.59-1.64-1.9-3.21-.6-4.52s3-1.05,4.56.84a2.36,2.36,0,0,0,.61.39C400.91,192.1,400.93,192.6,401,193.11Zm-3.16-3.2c-.84,1.15-1.75,1.86-1.68,2.44a2.48,2.48,0,0,0,1.71,1.57c.42.08,1.48-.94,1.49-1.48S398.56,191.1,397.8,189.91Z"/><path class="cls-22" d="M270.52,20.5c9.19-1.82,18.4-.33,27.6-.19a15.37,15.37,0,0,1,3.33.8L270,21.64Z"/><path class="cls-12" d="M170,202.09q.38-9.81.75-19.63c0-.73.17-1.46.26-2.19,0,7.57,0,15.15,0,22.72a12,12,0,0,1-1,3.12C170,204.77,170,203.43,170,202.09Z"/><path class="cls-3" d="M373,89.62c6.18,2.42,11.91,7.37,12.44,11C374.2,90.05,361.92,90,348.93,96.5c6.42-.7,12.8-.71,19,1.28l-1.47,1.27L359,98.17l-1.82-.48c-9.2.16-17.41,3.52-25.2,8.28l-.34-.63c.86-.75,1.71-1.52,2.59-2.25s1.75-1.52,2.7-2.17c7-4.76,14.35-8.71,22.84-10,1.79-.28,3.64-.15,5.46-.28a18.58,18.58,0,0,0,2.31-.48,16.9,16.9,0,0,0,3.41.58C371.62,90.68,372.28,90,373,89.62Z"/><path class="cls-23" d="M299.4,217.39c0-14.9,0-29.81-.06-44.71a4.66,4.66,0,0,0-1.26-2.83c-1.35-1.48-1.62-3.37-.27-4.64a2.75,2.75,0,0,1,4-.12c1.47,1.24,1.34,3,0,4.63a5,5,0,0,0-1.27,2.86q-.21,44.47-.29,88.93c0,1.42,0,2.6,1.4,3.68s1.26,2.87-.08,4.16a2.56,2.56,0,0,1-4-.11c-1.28-1.35-1.05-2.77,0-4.26a6,6,0,0,0,1.33-3.13c.08-14.82.05-29.64.05-44.46Zm.33-52.79c-.83,1.38-1.71,2.21-1.59,2.86A2.5,2.5,0,0,0,300,169.1a2.53,2.53,0,0,0,1.65-1.85C301.69,166.59,300.71,165.87,299.73,164.6Zm2.53,102.71c-1.18-.93-1.9-1.91-2.43-1.81a2.71,2.71,0,0,0-1.79,1.71c-.1.47.94,1.67,1.51,1.7S301,268.1,302.26,267.31Z"/><path class="cls-3" d="M251.64,107.19c-2.09,4.77-4.2,9.54-6.27,14.32A7.76,7.76,0,0,0,245,123l.61.29q3.93-6.35,7.85-12.68c.13,1,.27,2,.41,3.06a25,25,0,0,0-1.9,2.5,185.83,185.83,0,0,0-13.9,30.41l-2.46-.43,5.52-18c.44-1.32.89-2.64,1.34-4l5-12,3.08-5.49Z"/><path class="cls-24" d="M333.61,208.22a42.25,42.25,0,0,1-5.74-.05c-2.46-.34-3.84,1.25-5.4,2.56-.31.26-.3,1-.28,1.52.08,1.64-.77,2.76-2.26,2.62a3.33,3.33,0,0,1-2.29-2.06c-.34-1.52.83-2.33,2.37-2.55a3.54,3.54,0,0,0,2-.71c2.12-2.33,4.76-2.68,7.7-2.44,2.4.19,4.9-.25,7.23.22,4.34.87,6.56-1.86,8.89-4.57.3-.35.07-1.1.31-1.54.43-.83,1-2.23,1.55-2.23,2.68,0,3.64-2.25,5.36-3.51a7.25,7.25,0,0,1,3.65-1.55c6.57-.2,13.15-.12,19.73-.28a5.43,5.43,0,0,0,2.91-1.21c1.43-1.11,2.74-1.28,4,.05a2.51,2.51,0,0,1-.11,3.79c-1.32,1.27-2.61,1-4-.2a4.61,4.61,0,0,0-2.67-1.15c-6.58-.05-13.16,0-19.74.1-2.57,0-5.71,3.32-6.06,5.93-.11.85-1.26,2.29-1.79,2.22-2.15-.25-3.32,1.07-4.22,2.44-2.18,3.32-5.35,3.06-8.61,2.82-.83-.06-1.67,0-2.5,0Zm49.87-13.75c-.9-.79-1.46-1.67-2-1.66a2.05,2.05,0,0,0-1.54,1.4,2.13,2.13,0,0,0,1.32,1.64C381.78,195.94,382.47,195.13,383.48,194.47Z"/><path class="cls-23" d="M385.49,232.62c0,5.24.08,10.49-.06,15.73a5.2,5.2,0,0,1-1.33,3.21c-6.37,6.46-12.85,12.81-19.3,19.2-.81.81-1.51,1.43-1.15,2.95.18.76-1.15,2.55-2,2.7a3.33,3.33,0,0,1-2.71-2c-.15-.82,1.07-2.07,1.94-2.83s2.27-.9,3.07-1.68q9.58-9.31,19-18.82a5.08,5.08,0,0,0,1.4-3.17c.06-10.49,0-21-.12-31.47a5,5,0,0,0-1.17-2.71c-1.17-1.5-1.33-2.91.09-4.19a2.56,2.56,0,0,1,4,.26c1.28,1.46.85,2.81-.44,4.17a4.36,4.36,0,0,0-1.21,2.61c-.11,5.33-.05,10.66-.05,16Zm2-20.86c-1.2-.83-1.84-1.61-2.51-1.63s-1.62,1-1.55,1.34a2.44,2.44,0,0,0,1.44,1.77C385.48,213.35,386.24,212.53,387.51,211.76ZM363.22,274c-.92-.61-1.51-1.3-2-1.23a1.82,1.82,0,0,0-1.23,1.35,1.84,1.84,0,0,0,1.32,1.27C361.81,275.42,362.34,274.68,363.22,274Z"/><path class="cls-25" d="M283,81.71l5-2.17,1,1c-1.43.88-3,1.66-4.29,2.67-4.94,3.71-7.33,8.53-6.2,14.81a7.35,7.35,0,0,1,.05,1.24l.42,2.44c-.15,2.85-.34,5.7-.46,8.55a49,49,0,0,0,0,5.42c0,.66.62,1.28,1,1.91-.34,1.33-.63,2.67-1,4a5.75,5.75,0,0,1-1,2.1c-4,4.51-8.09,9-12.15,13.44l-5.78,4.95-2,1.05-.47-1q7.17-7.77,14.33-15.53c2.9-.58,4.71-2.23,5.12-5.24a22.77,22.77,0,0,0,.91-4.24c.12-4.31,0-8.63,0-12.94-.16-.78-.33-1.57-.5-2.36a86.68,86.68,0,0,0,.5-8.8c-.09-2.66.39-4.83,2.54-6.54.51-.4.69-1.2,1-1.81C282.71,84.45,282.77,83,283,81.71Z"/><path class="cls-3" d="M373,89.62c-.68.38-1.34,1.06-2,1.08a16.9,16.9,0,0,1-3.41-.58c-4.26-1.85-8.74-1.42-12.88-.22a19,19,0,0,1-15.23-1.47c-7.33-3.81-15.43-3.21-23.37-1.37-.15-.51-.31-1-.47-1.54,10.33-2.66,20.19-1.75,29.59,3.55a5.41,5.41,0,0,0,3.73.27,43.13,43.13,0,0,1,19.45-1.25A34.1,34.1,0,0,1,373,89.62Z"/><path class="cls-21" d="M305.83,174.78c0,3.41-.05,6.23,0,9a3.28,3.28,0,0,0,.92,1.61c1,1.21,1.22,2.6-.07,3.47-.71.48-2.62.43-3-.06-.52-.79-.31-2.17-.15-3.27s.89-1.89.94-2.86c.13-2.8,0-5.62,0-8.75h3.17c12.33-.1,24.65-.18,37-.37a5.9,5.9,0,0,0,3.14-1.26c1.45-1,2.79-1.24,4,.06a2.63,2.63,0,0,1-.14,4c-1.31,1.22-2.68,1-4-.25-.6-.56-1.38-1.31-2.08-1.31C332.54,174.76,319.39,174.78,305.83,174.78Zm46.49-.41c-1.19-.83-1.84-1.62-2.49-1.62s-1.41,1-1.42,1.54.84,1.6,1.35,1.62S351.09,175.16,352.32,174.37Z"/><path class="cls-23" d="M236,263.08c8.06,8.07,16.14,16.12,24.14,24.24a4,4,0,0,1,.81,2.46c.2,5.08.39,10.16.37,15.24a5.58,5.58,0,0,0,2,4.8c2.89,2.33,4.46,5.2,3.84,9.08a3.54,3.54,0,0,0,1,2.29c.95,1.18,1.18,2.45-.09,3.22a3.46,3.46,0,0,1-3.06,0c-1.22-.8-1-2.1,0-3.22,1.47-1.64,1.56-6.54-.15-7.91-4-3.23-5.35-7.35-4.79-12.29a6.71,6.71,0,0,0,0-1c-.13-3.81.74-8.06-.67-11.33s-5.07-5.6-7.75-8.33L235.43,263.7Z"/><path class="cls-26" d="M289.44,225.7c0,4.66-.09,9.33.05,14a5.16,5.16,0,0,1-1.79,4.38,28.53,28.53,0,0,0-3.4,3.64,4.06,4.06,0,0,0-.77,2.33c0,2-.92,3-2.79,3.09a2.46,2.46,0,0,1-2.81-2.52c-.06-2,1.27-2.65,3.07-2.85a5.35,5.35,0,0,0,2.49-.95c4-2.94,5.23-6.88,5-11.87-.39-7.64-.12-15.32,0-23a5.41,5.41,0,0,0-1.89-4.58c-2.59-2.24-4.53-4.81-4.17-8.56.05-.52-.63-1.22-1.13-1.68-1.48-1.36-1.81-2.84-.4-4.34a2.63,2.63,0,0,1,4.17,0c1.4,1.49,1.1,3-.41,4.33-1.18,1-1.29,4.78-.21,6.29a1.3,1.3,0,0,0,.34.36c4.46,3.26,5.36,7.74,4.8,12.93a81.64,81.64,0,0,0-.06,9Zm-6.57-28.49c.86-1,1.8-1.67,1.79-2.3s-1-1.26-1.48-1.89c-.67.58-1.69,1-1.9,1.76C281.13,195.28,282.1,196.1,282.87,197.21Zm-2.27,51.25c-.69.89-1.56,1.52-1.49,2s1.09,1.53,1.52,1.44a2.74,2.74,0,0,0,1.69-1.61C282.43,250,281.4,249.29,280.6,248.46Z"/><path class="cls-27" d="M291.16,174v7.14c0,1.62-.25,3.17,1.63,4.3.58.35.62,2.5.15,3.47a2.19,2.19,0,0,1-3.6.63c-.76-.76-1.43-2.95-1-3.31,2.65-2.48,1.44-5.56,1.7-8.39.07-.81,0-1.62,0-2.58-.94-.06-1.66-.13-2.39-.14q-16.49-.06-33-.11c-1.26,0-2.27,0-3.1,1.37-.93,1.58-2.64,1.74-4.14.64a2.49,2.49,0,0,1-.55-3.91c1.18-1.45,2.63-1.38,4.25-.53a8.48,8.48,0,0,0,3.55,1.18c11.16.15,22.31.18,33.47.24Zm-41.87-1.62c-.88,1.1-1.82,1.78-1.76,2.36a2.32,2.32,0,0,0,1.64,1.64,2.35,2.35,0,0,0,1.74-1.55C251,174.23,250.09,173.49,249.29,172.35Zm41.38,12.42c-.76,1.25-1.61,2-1.47,2.59a2.54,2.54,0,0,0,1.85,1.42c.4.06,1.36-1.05,1.34-1.6S291.54,185.91,290.67,184.77Z"/><path class="cls-24" d="M385.05,116.66c-.74,1-1.18,2.13-1.8,2.24a8.33,8.33,0,0,1-3.49-.47c-.93-.26-1.79-1.16-2.69-1.16-12.81,0-25.62,0-38.43.21-1.33,0-2.74,1.18-3.92,2.07s-2.33,1.83-1.62,3.86c.58,1.67-1.08,3.44-2.88,3.66a3.48,3.48,0,0,1-3.75-3.19c-.09-1.81,1.42-3.77,3.16-3.41,2.28.47,3.43-.71,4.55-2.12a5.89,5.89,0,0,1,5.18-2.2c12.31.06,24.63,0,36.94-.05,1.39,0,2.7.16,3.74-1.33.41-.59,2-.8,2.88-.5S384.25,115.71,385.05,116.66Zm-55.14,3.93c-1.09,1.44-2.26,2.33-2.18,3.08s1.33,1.53,2.07,2.29c.75-.74,2-1.4,2.1-2.22S330.9,122.07,329.91,120.59ZM382,114.52c-.79.89-1.66,1.43-1.67,2s.83,1.15,1.29,1.73c.62-.51,1.53-.91,1.75-1.55C383.5,116.26,382.65,115.5,382,114.52Z"/><path class="cls-24" d="M241.63,308.54q11.73,11.91,23.47,23.79a2.42,2.42,0,0,0,1.45.74c6.22.05,12.45,0,19.38,0,0-4.69.05-9-.05-13.29a3.56,3.56,0,0,0-1.07-2.07c-4.8-4.86-9.58-9.74-14.53-14.45-.94-.9-2.55-1.08-3.85-1.6l.72-.66,1.76-.44,1,.51c4.62,4.62,9.08,9.44,13.94,13.79a8.6,8.6,0,0,1,3.07,8.73c-.15,2.38-.44,4.77-.4,7.15,0,2.18-.82,2.9-2.94,2.87-6.05-.09-12.1,0-18.14,0-4.73-4.66-9.49-9.29-14.19-14-3.46-3.45-6.85-7-10.28-10.49Z"/><path class="cls-24" d="M338.51,188.41c0,2.51,0,4.67,0,6.83,0,1.76-.3,3.56,1.72,4.8.48.3.45,2.45-.09,3.19a2.58,2.58,0,0,1-4.14.21c-.62-.68-.87-2.91-.49-3.14,2.79-1.72,1.76-4.31,1.85-6.63,0-1.32,0-2.63,0-4.61-5.15,0-10,.4-14.75-.11s-8.2.73-11,4.49c-.83,1.12-2.1,1.93-2.93,3.05a5.51,5.51,0,0,0-1,2.72c-.14,1.61-.68,2.81-2.4,2.94a2.4,2.4,0,0,1-2.72-2.58c0-1.6.94-2.52,2.61-2.79a5,5,0,0,0,2.5-1.05,71.15,71.15,0,0,0,5.83-5.82,6.06,6.06,0,0,1,5.42-2.2c5.48.33,11,.35,16.47.51C336.35,188.24,337.24,188.33,338.51,188.41Zm2.22,13c-1.44-.69-2.19-1.35-2.9-1.3s-1.15.9-1.72,1.39c.63.52,1.23,1.41,1.9,1.47S339.38,202.27,340.73,201.45Zm-33.66-2c-.83-.64-1.38-1.39-1.85-1.34s-1.43.94-1.35,1.26a2.52,2.52,0,0,0,1.41,1.55C305.58,201.06,306.25,200.18,307.07,199.48Z"/><path class="cls-28" d="M226.6,308.52c-2.5-2.54-5.11-5-7.46-7.68a6.23,6.23,0,0,1-1.49-3.65c-.13-7.23,0-14.47-.12-21.71a5.45,5.45,0,0,0-1.17-3c-1-1.29-1.13-2.43.11-3.49a2.65,2.65,0,0,1,4,.19c1.12,1.18.75,2.31-.29,3.5a4.93,4.93,0,0,0-1.3,2.82c-.1,7.15-.12,14.31,0,21.46a5.83,5.83,0,0,0,1.47,3.42c2.37,2.66,6,4.73,7.19,7.79s.32,7.2.33,10.85c0,1.17,0,2.33,0,3.5-.17.82-.33,1.65-.5,2.48a7.38,7.38,0,0,1-.59-3.42Q226.71,315.08,226.6,308.52Zm-5.94-37.85c-1.12-.57-1.74-1.15-2.28-1.08s-1,.75-1.57,1.16c.57.45,1.11,1.16,1.73,1.25S219.62,271.37,220.66,270.67Z"/><path class="cls-29" d="M389,164.63l1-.55a14.51,14.51,0,0,1,.48,2.57q0,24.36-.12,48.71c0,1.28,0,2.27,1.41,3.09,1.69,1,1.79,2.74.58,4.32a3.08,3.08,0,0,1-4.45.35c-1.42-1.23-1.33-3.06,0-4.63a4.71,4.71,0,0,0,1.18-2.69c.14-16.16.19-32.31.24-48.47A24.74,24.74,0,0,0,389,164.63Zm3.85,56.27c-1.36-.94-2.11-1.86-2.8-1.82s-1.4,1-2.1,1.59c.67.67,1.25,1.72,2,1.91C390.62,222.72,391.48,221.77,392.88,220.9Z"/><path class="cls-26" d="M308.38,239.65a16.07,16.07,0,0,1-.37-2.36c-.1-8.83-.22-17.66-.17-26.49a5.48,5.48,0,0,1,1.44-3.4c3.55-3.75,7.36-7.26,10.88-11A6.46,6.46,0,0,1,326,194a27.77,27.77,0,0,0,3.62,0,48.71,48.71,0,0,1,2.16,6.19,3,3,0,0,1-1.15,2.6,2.88,2.88,0,0,1-2.73-.66c-.44-.61-.13-2,.16-2.87a34.83,34.83,0,0,1,1.85-3.95c-4.12-.35-7.15-.69-9.75,2.48-2.94,3.59-6.59,6.59-9.76,10a5.9,5.9,0,0,0-1.47,3.64c-.08,9.16,0,18.32.06,27.48Z"/><path class="cls-24" d="M306.45,292.54c-.19-2.36,1.47-4.75-1.06-6.74-.39-.31-.23-2.15.27-2.56a3.17,3.17,0,0,1,2.83-.37c.6.29,1.2,2.13.91,2.43-2.27,2.39-1.2,5.52-2.12,8.53-2.84,0-5.73,0-8.62,0-3.91,0-7.85.34-11.73,0-3.11-.25-5,1.27-6.8,3.28-.46.52-.22,1.61-.64,2.21-.55.79-1.51,2-2.15,1.88a3.27,3.27,0,0,1-2.25-2c-.15-.64,1.06-2.33,1.56-2.29,2.28.18,3.28-1.54,4.81-2.54a8.77,8.77,0,0,1,4.18-1.56c6.06-.2,12.14-.14,18.21-.18C304.67,292.65,305.48,292.58,306.45,292.54Z"/><path class="cls-26" d="M225,273c0,5.58,0,11.15.06,16.72a4.12,4.12,0,0,0,1.28,2.55c1.42,1.36,1.73,3.08.5,4.35a3.18,3.18,0,0,1-4.68-.06c-1.22-1.46-.92-2.8.37-4.19a4.74,4.74,0,0,0,1.31-2.81c.12-11.22.08-22.46.21-33.68a6.8,6.8,0,0,1,1.37-3.47c1.09-1.57,2.89-2.59,2.8-5,0-.58,2-1.76,3-1.69.8.06,2.2,1.76,2,2.44a3.72,3.72,0,0,1-2.5,2.41c-3.22.43-5.62,2.71-5.62,5.95,0,5.49,0,11,0,16.47Zm-.58,19.12c-.87,1.21-1.89,2-1.77,2.59a2.52,2.52,0,0,0,1.91,1.64,2.55,2.55,0,0,0,1.83-1.73C226.4,294,225.34,293.26,224.37,292.1Zm8.32-44c-.9-.65-1.51-1.44-1.95-1.35-.64.12-1.14.88-1.71,1.37.57.49,1.08,1.26,1.72,1.38C231.19,249.54,231.8,248.74,232.69,248.06Z"/><path class="cls-30" d="M370,328.75a8.8,8.8,0,0,1-.62-2.28c0-6.33,0-12.66.2-19,0-.94.77-1.86,1.18-2.78,0-.07.13-.11.19-.17,2.39-2.31,5.71-4.22,6.91-7s.44-6.7.48-10.1c.05-3.92.06-7.83.06-11.75,0-1.6.31-3.2-1.43-4.42-.46-.32-.27-2.43.31-3.17a2.17,2.17,0,0,1,3.63.16c.52.79.53,2.81,0,3.19-1.43,1-1.4,2.24-1.4,3.66,0,7.08,0,14.16-.14,21.23,0,1-.81,2-1.25,3a.48.48,0,0,1-.17.18c-6.42,4-8.27,9.86-7.51,17.18.41,4-.29,8.1-.49,12.15Zm8.63-57.38,1.11.65c.26-.67.76-1.37.69-2s-.82-1.46-1.17-1.42a2.54,2.54,0,0,0-1.68,1.24C377.41,270.09,378.22,270.84,378.6,271.37Z"/><path class="cls-31" d="M312.53,147.58a18,18,0,0,0,2.88.48c16.73,0,33.46,0,50.19,0a6,6,0,0,0,3.16-1.28c1.62-1.18,3.74-1.17,4.89.37a2.94,2.94,0,0,1-.53,4.41,3,3,0,0,1-4.72-.81c-.76-1.69-1.9-1.53-3.2-1.53q-25.09,0-50.19,0a11.74,11.74,0,0,1-3.09-.93Zm58.58-1.42c-1,1.3-2.18,2.2-2,2.79a3.19,3.19,0,0,0,2.13,2c.57.09,1.83-1.2,1.91-2S372.09,147.48,371.11,146.16Z"/><path class="cls-23" d="M379.92,237.69c0-1.33-.05-2.67,0-4a3.1,3.1,0,0,0-1.29-3.16c-1.53-1.09-1.48-2.77-.16-4.11a2.64,2.64,0,0,1,4-.07c1.37,1.3,1.49,3,0,4.11S381,232.69,381,234.1c-.07,3.57.72,7.52-.56,10.6s-4.61,5.11-7.06,7.6l-7.57,7.61c-1.32,1.32-2.78,2.39-2.43,4.77a2.13,2.13,0,0,1-2.72,2.39,4.34,4.34,0,0,1-2.26-3c-.29-1.6.85-3.26,2.56-2.85s2.41-.5,3.31-1.4c4.23-4.24,8.35-8.6,12.71-12.69,2.05-1.92,3.18-3.92,2.83-6.73a22.76,22.76,0,0,1,0-2.74Zm3.13-9.3c-1.15-.79-1.94-1.73-2.47-1.61-.71.17-1.22,1.18-1.81,1.83.62.52,1.23,1.45,1.87,1.46S381.94,229.21,383.05,228.39Zm-22.36,33.16c-.59,1.31-1.23,2.07-1.18,2.79s.88,1.16,1.36,1.73c.51-.72,1.3-1.4,1.43-2.18C362.38,263.37,361.52,262.69,360.69,261.55Z"/><path class="cls-24" d="M274.43,247.53a1.35,1.35,0,0,1,.28-.41c5-3.22,6.34-7.85,5.38-13.48a17.74,17.74,0,0,1-.07-4.49c.2-2.55-.35-4.67-2.48-6.36a4.54,4.54,0,0,1-1.09-2.57,8.78,8.78,0,0,1,0-3.23c.86-4.28-1.71-6.84-4.51-9.27a3.17,3.17,0,0,0-2-.43c-2.37.07-4.07-1.39-3.92-3.45a3.47,3.47,0,0,1,3.61-3.09c2.12.17,3.31,2,3,4.32a2.79,2.79,0,0,0,.65,2.23A10.65,10.65,0,0,1,277.5,218a5.87,5.87,0,0,0,2.23,5.69,4.55,4.55,0,0,1,1.28,3c.23,4.33.17,8.66.39,13a4.65,4.65,0,0,1-1.76,4.33c-1.61,1.3-3.06,2.8-4.58,4.22Zm-2.56-43.1,0-1c-.88-.5-1.8-1.45-2.63-1.38s-1.41,1.24-2.1,1.93c.76.71,1.46,1.9,2.29,2S271,205,271.87,204.43Z"/><path class="cls-30" d="M320.15,167.33a31.06,31.06,0,0,0,4.73-.06,9,9,0,0,0,3.42-1.4c1.62-1.07,3.12-1.22,4.49.19a2.68,2.68,0,0,1,0,4,2.89,2.89,0,0,1-4.58-.19c-.93-1.43-2-1.43-3.35-1.39-3.49.12-7,.27-10.48.2a6,6,0,0,1-3-1.17c-5.07-3.54-7.59-8.23-6.52-14.59.14-.83-.85-1.78-1-2.74s-.51-2.44,0-3.23c.32-.51,2.54-.62,2.88-.15.55.75.39,2.13.28,3.22-.2,2-.57,3.91-.88,5.86-.54,3.4.77,5.81,3.23,8.26,2.64,2.63,5.24,4.09,8.93,3.42a12,12,0,0,1,2,0Zm13.26.56c-1.43-.84-2.25-1.7-2.93-1.61s-1.33,1.11-2,1.72c.72.62,1.39,1.62,2.19,1.75C331.29,169.85,332.08,168.85,333.41,167.89Z"/><path class="cls-24" d="M231.08,220.57c3.48,3.34,7,6.62,10.4,10.05,1.28,1.29,2.53,2,4.38,1.66,4.28-.85,7.35.62,10.32,4,2.77,3.15,4.53,6.08,3.9,10.34-.28,1.93-.55,4,1.69,5.44a2.23,2.23,0,0,1-.24,3.68c-.89.58-2.87.8-3.45.23-.77-.74-1.28-3.17-.81-3.55,2-1.62,1.36-3.69,1.7-5.65.7-4.13-1.11-6.92-3.81-9.86-2.54-2.77-5-4.35-8.78-3.49-2.41.55-4.21-.37-5.9-2.19-3.23-3.47-6.68-6.72-10-10.06Zm31,33.33c-1.1-.85-1.76-1.75-2.38-1.72a2.24,2.24,0,0,0-1.64,1.55,2.29,2.29,0,0,0,1.51,1.71C260.18,255.52,260.91,254.66,262.08,253.9Z"/><path class="cls-24" d="M228.37,231.17c-2,0-3.73-.47-5,1.74a2.54,2.54,0,0,1-4.14.06,4.09,4.09,0,0,1-.59-3.49c.66-1.7,2.79-2.33,4-1.2,2.41,2.36,5.21,1.74,7.91,1.78a5.73,5.73,0,0,1,4.35,1.89q6.72,6.88,13.66,13.55a5.61,5.61,0,0,0,2.87,1.2c1.73.27,2.9,1.1,2.9,2.84a2.54,2.54,0,0,1-2.9,2.71c-1.78-.1-2.5-1.25-2.66-3a5.1,5.1,0,0,0-1.13-2.89c-4.35-4.48-9-8.71-13.18-13.31C232.51,231,230.41,231.32,228.37,231.17Zm-4.23-.14c-1.32-1-2.09-1.94-2.71-1.85-.8.12-1.47,1.09-2.2,1.7.65.6,1.25,1.59,2,1.69S222.72,231.82,224.14,231Zm27.38,16.29c-.75,1-1.56,1.65-1.51,2.19s.93,1.08,1.44,1.62c.54-.52,1.43-1,1.51-1.57S252.24,248.37,251.52,247.32Z"/><path class="cls-32" d="M334.3,138.19h8.24c1.7,0,3.29.24,4.65-1.53,1.07-1.39,2.95-1.06,4.16.33a2.68,2.68,0,0,1-.23,4c-1.35,1.24-3.12,1.34-4.2-.11s-2.37-1.52-3.87-1.52c-6.08,0-12.16-.19-18.24-.1a5.83,5.83,0,0,1-4.77-2c-1.68-1.8-3.07-4.08-6.22-3.86-.62,0-1.93-2-2-3.11-.05-1.69,1.46-2.59,3.16-2.39a2.74,2.74,0,0,1,2.62,3.07c-.09,3,3.93,7.13,6.91,7.16l5,0h4.75ZM352,139c-1.46-.94-2.26-1.86-2.94-1.77s-1.31,1.13-2,1.75c.61.58,1.2,1.58,1.85,1.62S350.44,139.82,352,139Zm-37.3-5.74c.83-1.08,1.83-1.85,1.71-2.36a2.78,2.78,0,0,0-1.82-1.71c-.43-.09-1.53,1-1.57,1.66S313.85,132.12,314.67,133.22Z"/><path class="cls-33" d="M283.91,111c5.83-6,11.56-12.09,17.52-18a30.86,30.86,0,0,1,12.91-7.22c.17.58.34,1.16.5,1.74a28.06,28.06,0,0,0-12.69,7.18c-5.87,5.65-11.45,11.59-17.15,17.41Z"/><path class="cls-34" d="M298.88,353.07a9.88,9.88,0,0,0,.63-2.32q.14-10.25.15-20.48c0-.69-.12-1.72-.57-2-2.38-1.65-2.27-4-2.19-6.44.06-1.58-.06-3.17,0-4.75a3.61,3.61,0,0,0-1.42-3.4,2.77,2.77,0,0,1,0-2.76,3.23,3.23,0,0,1,3-.38c.58.29,1.06,2.28.69,2.66-1.51,1.58-1.1,3.38-1.13,5.15s-.09,3.67,0,5.49a3.59,3.59,0,0,0,.82,2.4c1.91,1.47,2.07,3.35,2,5.52-.14,6.41-.09,12.82-.24,19.22,0,.93-.76,1.84-1.16,2.76Z"/><path class="cls-35" d="M209.56,210.08a46.41,46.41,0,0,1,4,4.07,5,5,0,0,1,.86,2.92c0,10.64-.07,21.29,0,31.93a5.88,5.88,0,0,0,1.25,3.13c1,1.35,1.34,2.79,0,3.7a3.91,3.91,0,0,1-3.48.08c-1.38-.85-1.13-2.31-.19-3.7a5.92,5.92,0,0,0,1.11-3c.14-9.9.07-19.8.3-29.69.07-2.88-.49-5.16-2.8-7a12.7,12.7,0,0,1-1.63-1.86Zm4.33,42c-.67.87-1.4,1.4-1.38,1.91s.75,1,1.17,1.56c.56-.49,1.37-.9,1.57-1.51C215.37,253.66,214.56,253,213.89,252.07Z"/><path class="cls-24" d="M268.68,209.53a57.32,57.32,0,0,1,2.27,6.32,3.08,3.08,0,0,1-.85,2.7,2.87,2.87,0,0,1-2.77-.34c-.52-.55-.48-2-.22-2.84a28.38,28.38,0,0,1,1.85-4.06l-.65-.73c-1.63,0-3.27,0-4.9,0-3.5-.07-7-.33-10.48-.22a8.25,8.25,0,0,1-6.69-2.53,4.24,4.24,0,0,0-2.78-.73,3.32,3.32,0,0,1-3.52-3.09,3.1,3.1,0,0,1,3.26-3,3.17,3.17,0,0,1,3.18,3.17,4.86,4.86,0,0,0,4.85,5q7.72.21,15.47.39C267.52,209.55,268.34,209.53,268.68,209.53Zm-25.44-8.34c-1,1.31-2.16,2.12-2.06,2.77a2.86,2.86,0,0,0,2,1.83c.57.09,1.83-1,1.87-1.68S244.16,202.56,243.24,201.19Z"/><path class="cls-30" d="M332.51,313.71c-3.79,3.85-7.54,7.75-11.39,11.54a4.93,4.93,0,0,0-1.66,3.89c.07,6.75-.13,13.49,0,20.23a6.86,6.86,0,0,1-2.3,5.7c-1.26,1.16-2.79,2.19-2.43,4.5.09.61-1.77,2.15-2.69,2.11a3.64,3.64,0,0,1-2.45-2.45c-.32-1.54.86-2.59,2.54-2.7a7.06,7.06,0,0,0,6.15-6.59c0-7.25,0-14.49.15-21.73a3.83,3.83,0,0,1,.73-2.47c4.19-4.28,8.48-8.45,12.74-12.66Zm-20.25,43.35c-.74.92-1.59,1.52-1.56,2.06a1.5,1.5,0,0,0,3,.09C313.75,358.67,312.94,358,312.26,357.06Z"/><path class="cls-36" d="M204.56,184.56c0-1.79-.06-3.12,0-4.45a3.07,3.07,0,0,0-1.54-3.27c-1.55-1-1.66-2.68-.49-4.15a2.88,2.88,0,0,1,4.21-.62c1.54,1.05,2.12,3,.77,4.06-2.49,2-1.5,4.45-1.79,7,.87.07,1.57.19,2.28.19,6.41,0,12.83.06,19.24-.06A4.63,4.63,0,0,0,230,182c1.43-1.37,2.8-1.79,4.4-.49a2.94,2.94,0,0,1,.21,4.42c-1.46,1.38-2.91,1.19-4.44-.09a4.81,4.81,0,0,0-2.69-1.18c-6.67-.1-13.33-.05-20-.05Zm.51-7.31c.87-1.24,1.92-2.13,1.77-2.67a3,3,0,0,0-2.07-1.8c-.48-.08-1.62,1.2-1.65,1.89S204.12,176.07,205.07,177.25Zm30.21,6.37c-1.41-.83-2.27-1.75-2.91-1.61a2.75,2.75,0,0,0-1.58,2c0,.47,1.16,1.54,1.77,1.51S234,184.59,235.28,183.62Z"/><path class="cls-23" d="M333,341.43a5.44,5.44,0,0,0,1.43-.9q11.22-11.22,22.36-22.53a3.64,3.64,0,0,0,.74-2.28c.06-1.81,1-2.91,2.67-3a2.49,2.49,0,0,1,2.85,2.74c-.06,1.81-1.26,2.49-3,2.66a4.68,4.68,0,0,0-2.69,1.05q-11.08,11-22,22.14a3.46,3.46,0,0,0-.93,2.22c0,2.19-1,3.73-2.78,3.64a2.68,2.68,0,0,1-2.72-2.95C328.82,342.28,330.17,341.2,333,341.43Zm-1.3.22c-.82,1.21-1.65,1.91-1.6,2.53s.94,1.26,1.47,1.89c.57-.59,1.53-1.12,1.62-1.77S332.44,342.93,331.67,341.65Zm28.73-24.18c.67-.9,1.5-1.53,1.45-2.08s-1.08-1.55-1.46-1.45a2.57,2.57,0,0,0-1.63,1.6C358.66,316,359.64,316.62,360.4,317.47Z"/><path class="cls-34" d="M287.52,310c.27.49.43,1.16.85,1.43,1.71,1.11,1.88,2.72,1.89,4.55,0,6.24.12,12.48.21,18.72a4.76,4.76,0,0,0,4.67,4.84c1.63.11,3,1,2.65,2.56a3.84,3.84,0,0,1-2.68,2.28c-1.47.25-2.58-.75-2.76-2.51a4.13,4.13,0,0,0-.9-2.54,6.65,6.65,0,0,1-2.15-5.52c0-6.15-.17-12.31-.24-18.46,0-2.28-1.14-3.53-3.38-3.68-1.8-.12-3.09-1-2.69-2.75a3.66,3.66,0,0,1,2.63-2.21C287.4,306.58,288.07,308,287.52,310ZM295,343.7l1.7-1.61c-.47-.48-1-1.38-1.41-1.34-.64.06-1.22.77-1.83,1.21ZM287.37,309c-.92-.6-1.51-1.3-2-1.24s-.92.89-1.37,1.37c.49.46,1,1.24,1.48,1.26S286.51,309.68,287.37,309Z"/><path class="cls-23" d="M337.88,222.67a33.47,33.47,0,0,1-2-4.79,3.26,3.26,0,0,1,.69-2.75,2.58,2.58,0,0,1,2.59,0c.6.57,1,2.42.67,2.7-2.2,1.78-1.42,4.09-1.29,6.19a4.91,4.91,0,0,1-1.81,4.32c-3.45,3.13-6.77,6.4-10.13,9.63-1.14,1.11-2.59,1.94-2.1,4.08.12.5-1.55,1.91-2.46,2s-2.36-1.27-2.32-1.89c.06-.92,1.12-1.94,2-2.6,1.05-.79,2.54-1,3.49-1.89,3.4-3.06,6.58-6.37,10-9.42,1.69-1.51,2.77-3,2-5.43Z"/><path class="cls-32" d="M275.5,191.19H261.33a52.86,52.86,0,0,0,.07,6c.09.72,1,1.35,1.55,2a2.93,2.93,0,0,1-.07,4.26,2.75,2.75,0,0,1-4.21.12c-1.34-1.24-1.67-3.06-.25-4.17,1.75-1.36,1.77-3,1.76-4.79,0-1.32,0-2.64,0-4.39H274c.49-2,.7-3.24-1-4.48s-1.45-3-.06-4.36a2.88,2.88,0,0,1,4.26-.1c1.37,1.22,1.76,3.12.3,4.13C275.47,186.82,275.24,188.57,275.5,191.19Zm-.39-10.54c-.94,1.42-1.91,2.23-1.88,3s1.34,1.87,1.84,1.76a3,3,0,0,0,1.92-2C277.11,182.84,276.08,182,275.11,180.65Zm-14.43,17.77c-.88,1.33-1.86,2.18-1.73,2.78.16.77,1.23,1.35,1.91,2,.58-.67,1.58-1.32,1.62-2S261.58,199.73,260.68,198.42Z"/><path class="cls-24" d="M232.91,195.28c-3,0-6,0-9,0-1.85,0-3.73-.41-5.25,1.42-.35.43-2.59.06-3.1-.6a3.26,3.26,0,0,1,.18-3.2c.57-.6,2.82-.71,3.14-.23,1.2,1.79,2.81,1.46,4.41,1.46,7,0,14-.06,21,.07a7,7,0,0,1,3.46,1.4c1.75,1.16,2.65,3.64,5.49,3.17.44-.08,1.65,1.52,1.61,2.28a2.86,2.86,0,0,1-2,2,3,3,0,0,1-2.36-1.57c-1.43-4.29-3.85-6.2-8.36-6.2Zm-13.54-.82c-.88-.58-1.58-1.35-2-1.22-.58.21-.94,1-1.39,1.61.53.41,1.07,1.15,1.59,1.13S218.6,195.17,219.37,194.46Z"/><path class="cls-37" d="M303.93,358c.09-.14.14-.33.27-.41,5-3.34,6-8.12,5.45-13.81-.44-4.46-.11-9-.15-13.48,0-2.23-4.07-6.64-6.26-6.79-1.81-.13-3.24-.88-3.08-2.81.15-1.75,1.57-2.56,3.28-2.24s2.74,1.35,2.22,3.41a2.42,2.42,0,0,0,.86,2c3.64,2.6,4.48,6.12,4.26,10.41-.28,5.23-.06,10.49.11,15.73a4.89,4.89,0,0,1-1.78,4.35c-1.6,1.32-3,2.83-4.54,4.26ZM300.58,321c1.2.68,1.88,1.38,2.45,1.29s1.07-.92,1.6-1.43c-.53-.41-1.06-1.14-1.61-1.15S301.78,320.28,300.58,321Z"/><path class="cls-38" d="M237,175.58c2.32,2.1,4.58,4.3,7,6.27a6.21,6.21,0,0,0,3.43,1.42c4.07.14,8.15,0,12.23-.06,2,0,4,.35,5.71-1.52.47-.52,2.61,0,3.61.67.46.3.4,2.65-.08,2.93-1,.59-3.14,1-3.65.48-1.46-1.57-3.08-1.35-4.79-1.34-4.49,0-9,.16-13.47.06a4.54,4.54,0,0,1-3.21-1.29c-4.2-5.92-9.85-7.76-16.81-6.66a34.57,34.57,0,0,1-5.48,0c3-.15,6.09-.26,9.13-.44C232.74,176,234.86,175.75,237,175.58Zm32.18,8.18c-1.14-.7-1.81-1.45-2.4-1.38s-1.13.9-1.7,1.4c.58.48,1.12,1.27,1.74,1.33S268,184.45,269.17,183.76Z"/><path class="cls-39" d="M353.82,125.2c1.08-1.18,1.74-2.44,2.71-2.78a3.39,3.39,0,0,1,3.08.72,3.67,3.67,0,0,0,3.44,1.37c4.16,0,8.33-.08,12.49.14a8.49,8.49,0,0,1,3.91,1.54c2.27,1.49,3.45,4.49,6.76,4.65.45,0,1.32,1.71,1.11,2.33a3.06,3.06,0,0,1-2.21,1.8c-.74,0-2.13-1.26-2.08-1.88.27-3.62-3.09-4.44-4.82-6.41-.73-.82-2.53-.9-3.86-1-3.33-.14-6.66-.1-10-.09-1.82,0-3.75-.55-4.86,1.84-.27.58-2.2.89-3.06.55S354.86,126.39,353.82,125.2Zm6.44-.08c-1.26-.87-2.13-1.91-2.68-1.76-.8.21-1.37,1.28-2,2,.73.62,1.41,1.61,2.22,1.72C358.35,127.16,359.1,126.08,360.26,125.12Z"/><path class="cls-24" d="M245,158.68c-4.57-.58-8.92-.26-12.55,3-.26-.3-.51-.62-.77-.92-2.36-2.68-1.73-4.8,1.72-5.84l1.56.64c.61.62,1.21,1.77,1.83,1.78,3,.06,6.07-.18,9.11-.31l1.64.14,1.09.26H251c6.66,0,13.32,0,20,0a14.52,14.52,0,0,0,2.42-.39l.63.61a9,9,0,0,1-2.62.87c-6.4.08-12.81,0-19.21.07a15.16,15.16,0,0,0-2.62.46Zm-10.49.53.33-2.17c-.64.08-1.72,0-1.84.28-.36.88-1,2.2,1,2.25Z"/><path class="cls-26" d="M328.92,111.14a43.1,43.1,0,0,1-2.51-5.2c-.29-.85-.22-2.43.31-2.8a3.33,3.33,0,0,1,3,0c.47.28.43,1.84.25,2.75a31.91,31.91,0,0,1-1.46,4.26h3.09l14.47-.07c1.84,0,3.64.32,5-1.77.94-1.45,3.49-1,4.58.47a2.93,2.93,0,0,1-.36,4.25c-1.33,1.29-3.7,1.32-4.61-.27s-2.23-1.6-3.72-1.6C340.74,111.16,334.52,111.14,328.92,111.14Zm24.19,2.44c1-1.33,2.05-2.16,2-2.86s-1.35-2-1.9-2a3.23,3.23,0,0,0-2.11,2C350.93,111.39,352.1,112.28,353.11,113.58Z"/><path class="cls-18" d="M241.63,308.54l-.68.61a10.48,10.48,0,0,1-.77-2.69c-.11-6.9-.23-13.8-.1-20.7a6.17,6.17,0,0,0-2.43-5.57c-1.65-1.28-2.67-3.55-5.52-2.72-.47.14-2.12-1.72-2.12-2.67a3.62,3.62,0,0,1,2.22-2.62c.73-.2,2.69,1.11,2.68,1.72,0,2.79,1.92,4.1,3.61,5.5a7.44,7.44,0,0,1,2.72,6.48c-.14,6.65,0,13.3.12,19.95C241.37,306.74,241.54,307.64,241.63,308.54Zm-7-33.82c-.9-.69-1.53-1.54-2.06-1.48s-1.55,1.07-1.46,1.48a2.71,2.71,0,0,0,1.6,1.69C233,276.52,233.73,275.51,234.59,274.72Z"/><path class="cls-24" d="M381.9,156c0,5,.1,9.92-.08,14.87a6.05,6.05,0,0,1-1.53,3.59c-2.09,2.25-4.57,4.13-6.67,6.37a8.15,8.15,0,0,1-7,2.92c-1.43-.11-2.81-.13-3.59,1.8-.71,1.75-3,2-4.5.8a2.9,2.9,0,0,1-.73-4.19,3.13,3.13,0,0,1,4.59-.76,7.86,7.86,0,0,0,9.6-.68,30.59,30.59,0,0,1,3.68-3.36c4.38-2.85,5.81-6.81,5.19-11.87a42.59,42.59,0,0,1,0-7.23,11.17,11.17,0,0,1,.74-2.57Zm-18.39,27.7c-1.58-.88-2.5-1.83-3.2-1.68s-1.27,1.35-1.88,2.09c.69.57,1.39,1.61,2.08,1.6S362.05,184.71,363.51,183.67Z"/><path class="cls-30" d="M336.54,296.52a3.32,3.32,0,0,1-3.55,3.57,4.16,4.16,0,0,0-2.67.87c-2.2,2-4.18,4.29-6.36,6.35a5,5,0,0,1-2.52,1.25c-2.74.45-5.78-.79-8.21,1.68-.29.29-2.14-.25-2.45-.84a2.21,2.21,0,0,1,3.08-3.07,8.53,8.53,0,0,0,10.63-1.11c1.45-1.49,2.92-3,4.36-4.47,1-1.09,2.3-1.9,1.69-4-.48-1.61,1.43-3.29,3.08-3.13A3,3,0,0,1,336.54,296.52Zm-3,3.34c.9-1.47,1.8-2.3,1.77-3.1s-1.12-1.33-1.74-2c-.69.69-1.84,1.33-1.93,2.09S332.6,298.43,333.56,299.86Z"/><path class="cls-40" d="M257,142.16l.47,1-5.35,4.72-2.11.26-12.47,0-3.1,1.51c-.9.34-2,1.16-2.66.9-1.07-.4-2.41-1.42-2.61-2.39a3.72,3.72,0,0,1,1.38-3.23c.8-.47,2.31.23,3.49.5a9.65,9.65,0,0,1,1.63.7l2.46.43c3.71.06,7.42.16,11.13.11.69,0,1.38-.67,2.06-1l2.24-.57Zm-25,8.3c.77-1.52,1.53-2.34,1.47-3.1s-1.05-1.19-1.63-1.78c-.6.66-1.62,1.29-1.68,2S231.05,149,232,150.46Z"/><path class="cls-24" d="M295.52,284.38c-.83,1-1.3,2.15-2,2.4a5.65,5.65,0,0,1-2.94-.42c-1.08-.31-2.1-1.13-3.16-1.16-3.73-.08-7.47.06-11.21.17-2.6.08-3.61,1.28-4.18,3.76a3.72,3.72,0,0,1-2.4,2.15c-.5.13-2.09-1.4-2-1.91a5.81,5.81,0,0,1,2-2.59c.34-.29,1.37.1,1.6-.2,2.7-3.4,6.48-2.24,9.92-2.45,2-.12,4,.09,6-.16,1.16-.14,2.22-1,3.36-1.35.87-.3,1.94-.81,2.68-.55S294.61,283.42,295.52,284.38Zm-1.08.14c-.9-.7-1.5-1.51-1.94-1.43a2.23,2.23,0,0,0-1.49,1.42c-.1.39.8,1.43,1.22,1.42C292.86,285.9,293.46,285.19,294.44,284.52Z"/><path class="cls-41" d="M328.42,248.15c2.05.15,3.52-.79,4.93-2.24,3.88-4,7.93-7.84,11.83-11.82a3.89,3.89,0,0,1,3.66-1.5,11.15,11.15,0,0,0,11.46-4.45c1.81-2.32,4.35-4.07,6.56-6.07l.59.49c-2.83,2.8-5.8,5.48-8.46,8.43-1.62,1.8-3.3,3-5.74,2.62-4.13-.64-7.18.84-10,4-3.13,3.5-6.83,6.49-10.22,9.77a3.68,3.68,0,0,0-.78,1.76c-.26,1-.08,2.36-.69,3s-2.42.49-2.74,0c-.58-.82-.46-2.16-.59-3.29a2.28,2.28,0,0,1,.21-.71Zm.08,1.16-.16,1.39,2.62.6.31-2Z"/><path class="cls-29" d="M345.52,305.24c7-7.17,14.12-14.31,21.1-21.53a11,11,0,0,0,1.9-3.5c.6-1.49,1.48-2.49,3.16-2.12a2.49,2.49,0,0,1,2,3.19c-.34,1.55-1.53,2.75-3.07,2.1s-2.25.2-3.1,1.07q-9.71,9.87-19.42,19.73a21,21,0,0,1-2.15,1.68Zm27.72-24.36c-.95-.8-1.56-1.69-2.05-1.63a2.28,2.28,0,0,0-1.47,1.53c-.09.4.78,1.4,1.27,1.43S372.2,281.54,373.24,280.88Z"/><path class="cls-32" d="M332.58,215.85a5.24,5.24,0,0,1,0,.92c-1.17,2.39-2,5.06-3.6,7.09-2.38,3-5.34,5.47-8,8.17-1.32,1.32-2.87,2.37-2.57,4.74.08.63-1.77,2.23-2.41,2.07a3.62,3.62,0,0,1-2.33-2.52c0-.89,1.52-2.65,2.2-2.56,1.8.21,2.58-.83,3.55-1.79q4.26-4.22,8.49-8.45c1.95-2,1.82-3,.11-5.16a3.31,3.31,0,0,1-.42-3,3.76,3.76,0,0,1,3.05-1.25C331.45,214.19,332.15,215.44,332.58,215.85Zm-.48.77c-1-.75-1.61-1.54-2.17-1.5s-1.14.84-1.71,1.32c.51.54,1,1.43,1.55,1.52S331,217.29,332.1,216.62ZM316,234.18c-.65.92-1.44,1.56-1.35,2,.13.6.94,1.06,1.46,1.59.43-.52,1.19-1,1.21-1.56S316.66,235.11,316,234.18Z"/><path class="cls-23" d="M266.94,241.13c-4.33-4.25-8.62-8.53-13-12.73a4.47,4.47,0,0,0-2.68-1.47c-2.4.14-3.87-1.11-5.31-2.67-.89-1-1.64-1.8-3.36-1.23s-3.62-1.11-3.68-3.05a3.29,3.29,0,0,1,3.25-3.38,3.34,3.34,0,0,1,3.3,3.59c-.15,2.26,2.46,5.48,4.71,5.41a6.12,6.12,0,0,1,4.94,2.29c4.09,4.26,8.26,8.42,12.4,12.62Zm-24.85-24.32c-1,1.47-2,2.35-1.94,3.18s1.39,2,1.94,1.9a3.12,3.12,0,0,0,2.15-2C244.32,219.11,243.15,218.23,242.09,216.81Z"/><path class="cls-29" d="M237,175.58c-2.13.17-4.25.39-6.37.52-3,.18-6.09.29-9.13.44h-9.9v-9.22c-1.84-.62-3.14-.77-4.45,1-.5.66-2.88.76-3.64.15a3.64,3.64,0,0,1-.59-3.57c.53-.82,3.15-1.43,3.46-1,1.64,2.07,3.94,1.8,6.28,2.2v9.36c5.73,0,11.2,0,16.67,0C231.87,175.43,234.43,175.52,237,175.58Zm-29.32-9.1c-1.06-.86-1.68-1.76-2.3-1.76s-1.27.9-1.91,1.4c.57.66,1,1.66,1.74,1.86C205.7,168.13,206.52,167.22,207.67,166.48Z"/><path class="cls-23" d="M241.38,212a34.29,34.29,0,0,1-4.84,1.69,3.44,3.44,0,0,1-2.78-.68,2.6,2.6,0,0,1,0-2.6c.59-.6,2.43-1,2.74-.66,2.08,2.36,4.77,1.49,7.2,1.59a5.68,5.68,0,0,1,4.36,1.86c.62.67,1.91.67,2.68,1.26s2,1.62,1.92,2.37a3,3,0,0,1-2.18,2,3.16,3.16,0,0,1-2.28-2c-.65-3.28-1.58-4.27-4.87-4.31h-1.75Z"/><path class="cls-27" d="M237.58,314.57a13.87,13.87,0,0,1,2.17,1.49c6.31,6.28,12.56,12.63,18.88,18.91a58.22,58.22,0,0,0,6.11,5.44c.85.64,2.33.38,3.46.72a10.4,10.4,0,0,1,3.41,1.45,41.07,41.07,0,0,1,4.32,4.13,13.06,13.06,0,0,1,1.28,1.89l-.57.49c-1.6-1.67-3.3-3.25-4.76-5-1.24-1.52-2.54-2.59-4.61-2.3s-3.69-.64-5.21-2.17c-8.34-8.37-16.78-16.63-25.18-24.94Z"/><path class="cls-42" d="M330.87,293.39c-1.23,1.25-2,2.56-3,2.88a4.08,4.08,0,0,1-3.29-.88c-2.16-1.91-6.46-2-8.64,0a3,3,0,0,1-4.44.09,2.73,2.73,0,0,1-.15-4.19,3.06,3.06,0,0,1,4.62,0c2.17,2.11,6.43,1.89,8.59-.09a4.26,4.26,0,0,1,3.5-.86C329.06,290.65,329.72,292.07,330.87,293.39Zm-1-.19c-1.34-.95-2.17-2-2.88-1.92s-2,1.35-1.93,1.87a3.2,3.2,0,0,0,2,2.11C327.65,295.39,328.53,294.22,329.84,293.2Zm-16,2.84c.83-1.29,1.76-2.09,1.65-2.73s-1.32-1.81-1.8-1.69a3,3,0,0,0-1.9,1.92C311.68,294.07,312.81,294.86,313.84,296Z"/><path class="cls-29" d="M369.45,292.61c-.1-2.64.69-4.21,2.71-3.93a4.18,4.18,0,0,1,2.58,2.67c.45,1.61-1.23,2.75-3.22,2.82a3.82,3.82,0,0,0-2.27.91c-2.23,2.11-4.37,4.3-6.47,6.54a2.67,2.67,0,0,0-.75,1.89c.31,2.12-1.35,2.47-2.53,2.41-.72,0-1.82-1.45-1.94-2.35-.22-1.56.75-2.49,2.53-2.63a5.27,5.27,0,0,0,2.92-1.25c2-1.77,3.78-3.73,5.59-5.67A5.38,5.38,0,0,0,369.45,292.61Zm2.78,1c.65-1,1.39-1.73,1.33-2.31s-.93-1.12-1.44-1.67c-.53.61-1.38,1.18-1.49,1.86C370.55,292,371.45,292.68,372.23,293.65Z"/><path class="cls-24" d="M360,178.18c-1.69,1.71-3.31,3.51-5.12,5.09a4.51,4.51,0,0,1-2.67.89c-5,.12-10,.07-15,.22a5.31,5.31,0,0,0-2.78,1.12c-1.6,1.18-3.11,1.32-4.41-.19a2.75,2.75,0,0,1,.37-4.2c1.37-1.21,3.19-.73,4.54.87a3.25,3.25,0,0,0,2.1,1.14q7.48.12,15-.08a4.66,4.66,0,0,0,2.59-1.08c1.66-1.37,3.17-2.92,4.74-4.4Zm-27.73,2.38c-.91,1.49-1.75,2.25-1.71,3a2.33,2.33,0,0,0,1.71,1.56,2.3,2.3,0,0,0,1.69-1.57C334,182.8,333.16,182,332.26,180.56Z"/><path class="cls-24" d="M329.07,272.06c.07,0,.18.05.22.11,3.26,4.61,7.87,5.59,13.1,4.87a4.56,4.56,0,0,1,4.37,1.75c1.32,1.52,2.57,3.15,5.06,3.1.59,0,1.91,2.05,1.67,2.67a3.69,3.69,0,0,1-2.82,2c-.77,0-2.12-1.43-2.22-2.34a6.65,6.65,0,0,0-6.25-6,9.19,9.19,0,0,0-1.74,0c-5.35,1.08-9-1.42-12-5.48Zm22.06,14.06c.62-.87,1.36-1.45,1.29-1.93s-1-1.43-1.34-1.34a2.56,2.56,0,0,0-1.52,1.5C349.46,284.68,350.38,285.32,351.13,286.12Z"/><path class="cls-34" d="M314.84,87.54c-.16-.58-.33-1.16-.5-1.74l1.24-.28c.16.51.32,1,.47,1.54-.16,3.54-.31,7.09-.51,10.63a2.22,2.22,0,0,1-.61,1.22c-4,4.28-8.11,8.54-12.32,13,1.31,1.62.89,3.26-.9,4.07a4,4,0,0,1-3.45-.38,3.84,3.84,0,0,1-.86-3.16c.28-1.61,1.72-2,3.28-2a3.77,3.77,0,0,0,2.39-.75c2.71-2.59,5.12-5.5,7.95-7.94a10.87,10.87,0,0,0,3.81-9.19C314.78,90.87,314.84,89.21,314.84,87.54Zm-11.61,25.87c-1.37-.85-2.19-1.76-2.87-1.67-.85.12-1.59,1.06-2.38,1.65.71.67,1.38,1.81,2.13,1.87S301.77,114.34,303.23,113.41Z"/><path class="cls-43" d="M251,157.47h-2.34q5.42-7.69,10.82-15.41l5.78-4.95-13.06,18.47C251.75,156.19,251.38,156.84,251,157.47Z"/><path class="cls-44" d="M270.39,234.65c-3-2.85-6.64-5.31-8.87-8.69-1.64-2.48-1.79-6-3.15-9-.22-.49,1.28-2.35,2.28-2.67a3.37,3.37,0,0,1,3,1.37,4.11,4.11,0,0,1-.29,3.6c-2.29,3.12-2.32,4.89.39,7.54,2.44,2.38,4.84,4.79,7.26,7.19ZM261,220.19c1-1.42,1.93-2.16,1.88-2.83s-1-1.4-1.58-2.1c-.64.62-1.68,1.16-1.81,1.88S260.23,218.66,261,220.19Z"/><path class="cls-26" d="M350.41,247c2.66-2.74,5.28-5.52,8-8.18a3.69,3.69,0,0,1,2.21-.77c1.57-.1,3.17.15,4.73,0,1.19-.14,2.31-.9,3.51-1.08a4.32,4.32,0,0,1,3,.37,2.79,2.79,0,0,1,0,2.76c-.47.58-2.4.92-2.7.56-1.63-2-3.76-1.21-5.72-1.51-2.84-.43-4.86.59-6.68,2.74s-3.86,3.87-5.81,5.79Z"/><path class="cls-27" d="M314,252.21a7.37,7.37,0,0,1-.79,1.71c-2.16,2.22-1.74,4.39-.29,6.84a3.12,3.12,0,0,1-.49,2.94,2.75,2.75,0,0,1-2.76-.11,3.23,3.23,0,0,1-.27-3c1.72-2.8,1.7-4-.34-6.54-.48-.62-.66-2.19-.25-2.61a4,4,0,0,1,3-1.08C312.6,250.45,313.28,251.57,314,252.21Zm-3.73,2.4,1.14-.65c.36-.53,1-1.06,1-1.58s-.93-1.1-1.34-1a2.09,2.09,0,0,0-1.47,1.24C309.47,253.2,310,253.93,310.26,254.61Z"/><path class="cls-24" d="M291.38,300.8c.86-1.06,1.35-2.23,2.17-2.53a3.51,3.51,0,0,1,2.9.52c2.2,1.72,3.95,1.78,6.51.31a3.12,3.12,0,0,1,3,.27,2.92,2.92,0,0,1,0,2.93,3.12,3.12,0,0,1-3,.19c-2.7-1.67-4.06-1.65-6.59.33a3.19,3.19,0,0,1-2.69.43C292.81,302.91,292.27,301.83,291.38,300.8Zm5.35-.12c-.92-.71-1.54-1.56-2.08-1.5s-1.6,1.07-1.51,1.45a2.72,2.72,0,0,0,1.6,1.7C295.12,302.44,295.83,301.45,296.73,300.68Z"/><path class="cls-32" d="M284.93,145.53c3.8-3.84,7.64-7.64,11.36-11.55a4.13,4.13,0,0,0,.9-2.68c0-1.85,1-3.42,2.8-3.45a2.81,2.81,0,0,1,3.14,2.57c.25,1.73-1.1,3-3,3.28A6.16,6.16,0,0,0,297,135c-3.88,3.63-7.63,7.41-11.43,11.13Zm15.39-12.3c.77-1.14,1.72-2,1.57-2.46a2.83,2.83,0,0,0-1.93-1.61c-.41-.07-1.45,1.12-1.46,1.74S299.43,132.16,300.32,133.23Z"/><path class="cls-34" d="M284.5,132.69q-6,6-12,11.95c-.76.77-1.39,1.33-.9,2.74.23.68-1.06,2.56-1.88,2.71s-2.06-1-3.11-1.61a14.44,14.44,0,0,1,2-2.92c.91-.83,2.34-1.09,3.24-1.92,4.05-3.8,8-7.71,12-11.58ZM269.35,146l-1.62,1.84c.5.44,1,1.14,1.52,1.24a1.7,1.7,0,0,0,1.3-1.06C270.56,147.49,269.94,146.94,269.35,146Z"/><path class="cls-32" d="M308.38,239.65,309,239l9.91,9.81c.17.18.46.33.51.53.65,3,.6,6.21,3.08,8.58.08.07-1.2,2.21-2.11,2.48a3.39,3.39,0,0,1-2.91-1.32,3.34,3.34,0,0,1,.39-3,5.36,5.36,0,0,0-.12-6.8Q313.08,244.43,308.38,239.65ZM322,257.88c-.92-.71-1.53-1.55-2.1-1.52s-1.13.89-1.7,1.39c.56.59,1,1.51,1.7,1.66C320.36,259.52,321.07,258.6,322,257.88Z"/><path class="cls-18" d="M346.94,214.06c2-2,3.83-4.21,7.17-4.31,1.61-.05,2.75-1.32,2.7-3.42,0-.9,1.18-1.82,1.83-2.73l2.7,2c-.73.85-1.41,1.75-2.2,2.53-.23.22-1-.06-1.16.15-2.58,3.61-8,2.55-10.43,6.35Z"/><path class="cls-41" d="M328.47,248.1l-1.11,0c.36-1.32,1.14-2.85-.95-3.37a2,2,0,0,0-1.65,1.09c-.43,2.16,1.27,2.06,2.66,2.22-.8.29-2.11,1-2.3.78-.75-.88-1.59-2.1-1.5-3.11.08-.79,1.64-2.16,2.28-2,1.7.37,2.35-.69,3.25-1.55L343.92,228l.64.63c-4.83,4.78-9.52,9.7-14.55,14.25-1.83,1.65-1.08,3.51-1.59,5.25Z"/><path class="cls-20" d="M242.5,124.14c-.45,1.32-.9,2.64-1.34,4-1.64.13-3.24-.34-3.54-2-.18-1,1.1-2.23,1.17-3.39.14-2.32-.1-4.67-.18-7-.08-.24-.15-.48-.23-.72.66-1.64,1.31-3.29,2-4.93l.69,1.8c-.18,2.51-.3,5-.54,7.52C240.29,121.38,240.64,123.06,242.5,124.14Zm-.48,1.2c-1-.73-1.61-1.59-2.14-1.52s-1.26,1-1.33,1.64c-.06.43.87,1.42,1.3,1.39C240.48,126.8,241.05,126.06,242,125.34Z"/><path class="cls-45" d="M245,158.68l4.53.4-5.45,8.35-.63.18-1,.46-1.05-.56Z"/><path class="cls-46" d="M241.39,167.51l1.05.56.55.57,0,0-2.39.09c-4.06-.06-8.12-.16-12.17-.12-.51,0-1.16.66-1.5,1.17-1.18,1.81-2.92,2.38-4.38,1.22a2.83,2.83,0,0,1-.64-4.17c1.07-1.59,2.71-1.39,4.54-.31,1.24.73,3,.62,4.5.88Zm-17-1.56c-.93,1.2-1.9,1.91-1.82,2.47.1.74,1,1.37,1.6,2,.6-.56,1.64-1.08,1.69-1.68S225.15,167.27,224.41,166Z"/><path class="cls-31" d="M243.47,167.61l.63-.18c13.31,0,26.62,0,39.92.06a5.73,5.73,0,0,0,5-2.06,45.49,45.49,0,0,1,3.88-3.85l.61.63-5.91,6q-20.24,0-40.47-.1A28.69,28.69,0,0,1,243.47,167.61Z"/><path class="cls-34" d="M344.56,228.65l-.64-.63a4.81,4.81,0,0,1,4.74-2.46c2,.18,5.72-3.59,5.69-5.58s1-3.24,2.93-3.21A2.53,2.53,0,0,1,360,219.7c-.22,2.06-1.62,2.6-3.58,2.52a3.75,3.75,0,0,0-2.42,1.09c-1.88,1.83-3.35,4.08-6.62,3.53C346.54,226.71,345.49,228,344.56,228.65Zm15-9.34c-1.2-.63-1.94-1.32-2.62-1.27s-1,1-1.52,1.55c.64.5,1.23,1.33,1.91,1.41C357.89,221.06,358.52,220.17,359.6,219.31Z"/><path class="cls-47" d="M218.91,125l-3.45,13.67-1.81,1.37.78-10.43Z"/><path class="cls-48" d="M213.65,140.05l1.81-1.37,10.42-10.1,1.43-1.34.81.88q-7.05,7-14.11,14a4.7,4.7,0,0,1-1,.58l-.44-.59Z"/><path class="cls-41" d="M360,178.18l-.64-.62c2.68-2.71,5.4-5.39,8-8.18a3.46,3.46,0,0,0,.88-2.3c-.09-2.15.95-3.68,2.94-3.59a2.65,2.65,0,0,1,2.85,2.68,3.47,3.47,0,0,1-3.27,3.44,4.57,4.57,0,0,0-2.63.89C365.34,173,362.69,175.61,360,178.18Zm10.4-9.55.94.21a14.57,14.57,0,0,0,1.65-2.77c.1-.28-.9-1.37-1.34-1.33-.86.06-2.39.68-2.38,1A8.45,8.45,0,0,0,370.39,168.63Z"/><path class="cls-34" d="M293.51,162.21l-.61-.63c.19-3.27.43-6.54.5-9.81,0-.43-.93-.83-1.33-1.33a2.73,2.73,0,0,1,3.91-3.81c1.2,1.13,1.49,2.77.17,3.69-1.65,1.15-1.49,2.57-1.52,4.11,0,1.83,0,3.66-.13,5.47A8.27,8.27,0,0,1,293.51,162.21Zm.71-15.73c-.77.88-1.72,1.54-1.63,2,.14.67,1,1.18,1.55,1.75.53-.51,1.43-1,1.5-1.56S294.9,147.44,294.22,146.48Z"/><path class="cls-41" d="M350.41,247l.62.64c-2.84,1.92-3.15,4.75-3,7.86.07,1.62-.47,3.26-.49,4.89s-.64,3.49,1.24,5c.63.49.59,2.42.18,3.42-.2.47-2.52.77-2.92.3-.7-.79-1.25-2.9-.81-3.3,2-1.83,1.5-4.09,1.63-6.25a26.14,26.14,0,0,0,0-5.23C346.41,251,347.86,248.77,350.41,247Zm-3.1,18L345.52,267c.55.51,1.05,1.31,1.67,1.42.43.08,1.43-.75,1.47-1.23S348,266,347.31,265Z"/><path class="cls-49" d="M298.88,353.07l.63.64c-1.17,1.27-2.42,2.49-3.5,3.84-.68.86-.95,2.07-1.7,2.84a4.63,4.63,0,0,1-2.79,1.66c-.59,0-1.81-1.86-1.59-2.39.37-.87,1.64-1.42,2.62-1.94.75-.4,1.81-.34,2.43-.85C296.38,355.73,297.59,354.35,298.88,353.07Z"/><path class="cls-41" d="M237.58,314.57l-.7.07c-3.37-2.13-4.59-5-3.74-9,.41-2,.89-4.23-1.31-6.1-1.2-1-.79-3,.8-4a2.73,2.73,0,0,1,4.08.82c.61,1.22,1.16,3.33-1.21,4.07A2.11,2.11,0,0,0,234,303a16.7,16.7,0,0,1,0,3.24c-.31,3.12,0,5.92,3.3,7.45C237.47,313.77,237.48,314.26,237.58,314.57Zm-3.28-19.33c-1.08,1.25-1.7,1.95-2.31,2.65.69.57,1.35,1.55,2.06,1.59s1.46-.88,2.2-1.38Z"/><path class="cls-18" d="M289,258.59c1.06-1.43,2.85-2.4,2.44-4.75-.08-.48,1.69-1.87,2.42-1.75a3.5,3.5,0,0,1,2.35,2.25c.14.71-1.25,2.51-1.77,2.44-2.29-.32-3.35,1.32-4.79,2.4Z"/><path class="cls-23" d="M212.6,142.14l.44.59a36.06,36.06,0,0,0-2.54,3c-.78,1.15-1.23,2.54-2.07,3.64-.56.76-1.56,1.69-2.32,1.65a2.8,2.8,0,0,1-2-1.88c-.09-.76,1-2.41,1.45-2.36,3,.4,4.05-2.05,5.77-3.51C211.74,142.92,212.17,142.53,212.6,142.14Z"/><path class="cls-50" d="M243.47,167.61a28.69,28.69,0,0,0,3.66.49q20.24.09,40.47.1a23.52,23.52,0,0,1-2.89.36q-20.86.06-41.72.08l-.55-.57Z"/><path class="cls-51" d="M371.46,101.16l1.62,1c1.14,1.76,2.57,3,4.85,2.37l1.59.62a12.07,12.07,0,0,1,.38,1.66,2.74,2.74,0,0,1-2.4,3.22c-1.73.33-3.52-.77-3.24-2.21.57-2.9-1.56-4-2.79-5.77C371.47,101.75,371.47,101.46,371.46,101.16Zm5.54,3.69c-.81,1.09-1.72,1.79-1.64,2.36s1.06,1.63,1.64,1.62a2.37,2.37,0,0,0,1.7-1.59C378.78,106.67,377.84,106,377,104.85Z"/><path class="cls-18" d="M312.53,147.58l-.61.63a41.28,41.28,0,0,0-3.62-3.39,8.17,8.17,0,0,0-3.32-1.48,3.21,3.21,0,0,1-3-3.09c-.14-1.66,1.65-3.42,3.13-3.14,1.72.33,3.37,1.24,2.77,3.27s.63,3,1.75,4.12S311.58,146.56,312.53,147.58Zm-7.7-4.93c1.75-.79,3-1.83,1.68-3.58a2.77,2.77,0,0,0-2.68-.41C301.62,140.37,303.84,141.33,304.83,142.65Z"/><path class="cls-52" d="M339.07,328.16c-1.1,1.71-3.4,2.61-3.27,5.23,0,.52-1.8,1.74-2.4,1.54a3.47,3.47,0,0,1-1.83-2.5c-.09-.71,1.24-2.33,1.53-2.24,2.74.87,3.62-1.68,5.33-2.65Z"/><path class="cls-26" d="M339.07,328.16l-.64-.62c4-2.71,4.5-6.68,4.13-11.09-.23-2.73,0-5.49,0-8.23l.8-.05a9.34,9.34,0,0,1,.3,1.7c0,3.41-.16,6.83.08,10.22a6.63,6.63,0,0,1-2.78,6.43A23.83,23.83,0,0,0,339.07,328.16Z"/><path class="cls-53" d="M284.5,132.69l-.65-.63q.24-7.86.49-15.7c0-.92.15-1.84.22-2.76h.61a7.73,7.73,0,0,1,.3,1.46c0,5.17,0,10.34-.11,15.5A6.72,6.72,0,0,1,284.5,132.69Z"/><path class="cls-54" d="M270.39,234.65,271,234c.74,0,1.48,0,2.22,0a3,3,0,0,1,3,3.25,3.09,3.09,0,0,1-3.58,2.68,3,3,0,0,1-2.52-3.65C270.24,235.77,270.31,235.21,270.39,234.65Zm5.65,2.48c-1.43-1-2.21-1.9-2.86-1.82s-1.27,1.13-1.9,1.76c.58.58,1.13,1.57,1.76,1.62S274.54,238,276,237.13Z"/><path class="cls-55" d="M274.43,247.53l.63.63-14.47,14-.66-.64Z"/><path class="cls-42" d="M266.94,241.13l.58-.62,1.68-.14a3,3,0,0,1,3.35,3.11,3,3,0,0,1-3,3.21c-2-.16-2.8-1.52-2.83-3.39A17.7,17.7,0,0,1,266.94,241.13Zm5.29,2.52c-1.15-1-1.85-2-2.49-2a2.49,2.49,0,0,0-1.71,1.79,2.59,2.59,0,0,0,1.57,2C270.2,245.55,271,244.54,272.23,243.65Z"/><path class="cls-51" d="M329.07,272.06l-.64.62a24.87,24.87,0,0,0-3.68-1.45c-1.65-.39-2.55-1.31-2.48-2.92a2.51,2.51,0,0,1,2.74-2.63c1.65.06,2.84,1.2,2.52,2.77C327.17,270.22,328.22,271,329.07,272.06Zm-2-3.69c-1-.69-1.61-1.5-2.14-1.43a1.5,1.5,0,0,0,.09,3C325.53,270,326.13,269.12,327.05,268.37Z"/><path class="cls-34" d="M231.08,220.57l-.64.62a7.57,7.57,0,0,0-2.38-.57c-2,.17-3.33-.54-3.6-2.53s.85-3,2.68-3.23,3,1.29,3.1,3.37A8,8,0,0,0,231.08,220.57Zm-3.64-5.26c-.89,1.08-1.9,1.8-1.79,2.29.15.73,1.09,1.29,1.7,1.93.57-.58,1.51-1.11,1.6-1.76S228.19,216.45,227.44,215.31Z"/><path class="cls-36" d="M332.51,313.71l-.6-.63c0-.56,0-1.12,0-1.68a2.93,2.93,0,1,1,5.83-.22c-.32,1.95-1.56,2.82-3.56,2.58A15.9,15.9,0,0,0,332.51,313.71Zm4.88-2.39c-1.19-1-1.83-1.93-2.42-1.9s-1.29.95-1.94,1.48c.5.57,1,1.53,1.53,1.62S336,312,337.39,311.32Z"/><path class="cls-56" d="M289,258.59l.65.59c.08.55.14,1.1.26,1.64a2.83,2.83,0,0,1-2.38,3.63c-1.8.22-3.19-.61-3.43-2.42s1-2.83,2.78-3.08C287.55,258.85,288.25,258.71,289,258.59Zm.73,3.09c-1.3-.76-2-1.55-2.69-1.48s-1.24,1-1.86,1.51c.63.52,1.22,1.4,1.89,1.46S288.4,262.45,289.69,261.68Z"/><path class="cls-51" d="M346.94,214.06l.61.6c.06.57.14,1.14.16,1.71a3,3,0,0,1-3.12,3.14,2.86,2.86,0,0,1-2.86-3.13,3,3,0,0,1,3.53-2.68C345.82,213.78,346.38,213.94,346.94,214.06Zm.3,2.5c-1.19-.82-2-1.76-2.52-1.63-.71.18-1.21,1.19-1.81,1.84.64.52,1.26,1.4,1.93,1.43S346.13,217.37,347.24,216.56Z"/><path class="cls-34" d="M391.18,264.43c.6.93,1.76,1.94,1.63,2.76a3.36,3.36,0,0,1-2.36,2.11c-.57.09-1.95-1.36-2-2.15s1.07-1.83,1.67-2.74Z"/><path class="cls-18" d="M326.51,184c-.9.6-1.81,1.69-2.69,1.66s-2.25-1.38-2.16-2a3.39,3.39,0,0,1,2.09-2.37c.79-.14,1.81,1,2.74,1.59Z"/><path class="cls-51" d="M259.93,261.53l.66.64.24,2.08a2.71,2.71,0,0,1-2.19,3.34,2.52,2.52,0,0,1-3.24-2.23,2.65,2.65,0,0,1,2.21-3.3C258.38,261.87,259.16,261.71,259.93,261.53Zm.43,3.28c-1.05-.73-1.7-1.52-2.35-1.53s-1.53,1.09-1.44,1.49a2.59,2.59,0,0,0,1.6,1.66C258.62,266.54,259.32,265.62,260.36,264.81Z"/><path class="cls-51" d="M236,263.08l-.6.62c-.66,0-1.32,0-2,0-1.77-.07-2.94-1-2.89-2.75a2.83,2.83,0,1,1,5.61.66C236.1,262.11,236.08,262.6,236,263.08Zm-2.59,0c.7-1,1.52-1.59,1.47-2.17a2,2,0,0,0-1.61-1.28,2.13,2.13,0,0,0-1.49,1.46C231.79,261.66,232.68,262.24,233.44,263.11Z"/><path class="cls-32" d="M284.93,145.53l.64.63L274,157.68l-.63-.61Z"/><path class="cls-52" d="M365,104.05a19.84,19.84,0,0,1,2.18.06c1.76.21,3,1.38,2.57,3a4.16,4.16,0,0,1-2.71,2.54c-1.71.34-2.66-1-2.73-2.77,0-.73,0-1.46.05-2.19C364.56,104.46,364.77,104.25,365,104.05Zm4.33,2.84c-1.06-.73-1.71-1.53-2.36-1.53s-1.5,1.1-1.41,1.52a2.54,2.54,0,0,0,1.61,1.63C367.61,108.61,368.29,107.7,369.32,106.89Z"/><path class="cls-36" d="M209.56,210.08l-.63.62c-.65,0-1.3,0-2,0-1.74,0-2.9-.92-2.93-2.66a2.57,2.57,0,0,1,2.89-2.7,2.65,2.65,0,0,1,2.78,3.06C209.69,209,209.61,209.51,209.56,210.08Zm-2.54,0c.65-.91,1.46-1.54,1.4-2.08s-1.09-1.46-1.49-1.37a2.61,2.61,0,0,0-1.63,1.58C205.2,208.57,206.22,209.25,207,210.08Z"/><path class="cls-44" d="M367.45,222.56l-.59-.49c1.26-1.36,2.57-2.57,2.24-4.83-.08-.61,1.5-1.92,2.44-2.06.71-.11,2,1,2.36,1.8.63,1.6-.37,3.48-1.85,3.33C369.77,220.07,369,221.94,367.45,222.56Zm3.81-7.17c-.61,1.1-1.27,1.79-1.13,2.16.27.7,1,1.2,1.56,1.79.51-.56,1.46-1.15,1.41-1.66S372.18,216.46,371.26,215.39Z"/><path class="cls-12" d="M234.41,149.64l3.1-1.51q-1.26,3.74-2.53,7.47l-1.56-.64Z"/><path class="cls-28" d="M303.55,288.37c-1.63,1.31-2.54,2.59-3.61,2.76-1.68.26-2.46-1.22-2.45-2.78s.79-3,2.47-2.76C301,285.77,301.93,287.06,303.55,288.37Zm-1.72,0-1.93-1.72c-.43.62-1.15,1.21-1.2,1.85s.77,1.05,1.21,1.58Z"/><path class="cls-57" d="M303.93,358l.64.62c0,.57-.05,1.14-.06,1.71,0,1.71-.73,3-2.59,2.91s-2.41-1.46-2.23-3,1.13-2.73,3-2.37C303.13,358,303.53,358,303.93,358Zm-.05,2.57c-.8-.69-1.26-1.31-1.84-1.46-.26-.07-1.11.85-1.08,1.27.05.59.67,1.12,1.05,1.68Z"/><path class="cls-52" d="M278.09,349.78c3.65-.38,5.24.29,5.18,2.23a2.52,2.52,0,0,1-2.66,2.66C278.54,354.75,277.83,353.39,278.09,349.78Zm4.52,2.37c-.86-.7-1.44-1.51-1.87-1.43-.63.1-1.16.84-1.73,1.31.54.5,1,1.27,1.63,1.42C281.07,353.55,281.7,352.79,282.61,352.15Z"/><path class="cls-29" d="M265.42,333.63c6,0,12.09-.08,18.14,0,2.12,0,3-.69,2.94-2.87,0-2.38.25-4.77.4-7.15V334c-4.57,0-8.85,0-13.12,0C271,334,268.2,333.76,265.42,333.63Z"/><path class="cls-28" d="M288.22,342.38c-1.76,1.25-2.93,2.67-3.74,2.49a3.78,3.78,0,0,1-2.25-2.81c-.05-.79,1.51-2.36,2.37-2.36S286.53,341,288.22,342.38Zm-3.69,2.09c.67-1,1.4-1.62,1.31-2.09-.11-.63-.86-1.14-1.33-1.7-.42.53-1.12,1-1.17,1.6S283.92,343.42,284.53,344.47Z"/><path class="cls-42" d="M287.14,297.22c1.2,1.7,2.32,2.61,2.48,3.67a2.29,2.29,0,0,1-2.59,2.66c-1.64,0-2.81-1.13-2.49-2.74C284.76,299.75,285.89,298.88,287.14,297.22Zm2,3.8c-.89-.69-1.43-1.42-1.93-1.4s-1.08.75-1.61,1.17c.5.55.92,1.35,1.53,1.55C287.49,302.46,288.16,301.67,289.11,301Z"/><path class="cls-29" d="M269.89,301.1l-1-.51a10.39,10.39,0,0,0-.51-2.33c-.06-.14-1.11.14-1.71.23.15.85.3,1.69.46,2.54l-.72.66c-1.52-1-1.95-2.49-.67-3.73a3.69,3.69,0,0,1,3.25-.64C270.63,298,270.75,299.56,269.89,301.1Z"/><path class="cls-58" d="M365,104.05c-.22.2-.43.41-.64.62l-7.18-7,1.82.48Z"/><path class="cls-59" d="M224.56,147.11l1.85.5c-.72,2.49-1.45,5-2.17,7.46l-.55-.09Z"/><path class="cls-60" d="M240.62,168.76l2.39-.09c-.92,1.53-1.85,3.06-2.77,4.6l-.92-.3C239.75,171.56,240.18,170.16,240.62,168.76Z"/><path class="cls-61" d="M371.46,101.16c0,.3,0,.59,0,.89l-5-3L368,97.78l2,.79Z"/><path class="cls-62" d="M283.91,111l1.09,1.16-3.61,3Z"/><path class="cls-2" d="M251.64,107.19l-1.1-.57c3.52-6.11,7-12.21,10.77-18.66-5.58,4.19-9.78,9.17-13.87,14.26l-1-1.3c10.49-13.59,23.08-24.11,40.05-28.27l.66.82c-.42.4-.78,1.06-1.26,1.16-15.36,3.27-23.45,14.8-30.9,27.07Z"/><path class="cls-4" d="M279,101.71l-.42-2.44c.88-1,1.78-2,2.63-3,5.9-7,12.13-13.68,20.77-17.45.22-.1.35-.38.53-.57l-.28-.73-13.21,3-1-1c8.17-3.42,16.46-4.5,24.94-2l.06.85c-1.61.12-3.24.13-4.83.39C301,79.92,295.39,84,290.46,88.92,286.41,93,282.78,97.43,279,101.71Z"/><path class="cls-63" d="M253.9,113.64c-.14-1-.28-2-.41-3.06l1.35-2.11,1.08,1a19.62,19.62,0,0,0-.54,3.09c-.07,3.31.06,6.62-.08,9.92a11.13,11.13,0,0,1-1.1,3.09,37.44,37.44,0,0,0-1.61,4.15c-.74,2.91.3,5.35,2.41,7.38l-.61,1.1c-.28-.48-.45-1.19-.86-1.39a12.34,12.34,0,0,0-2.53-.64c-.19.86-.79,2-.46,2.5s1.58.62,2.44.64c.47,0,1-.52,1.42-.81l1,1.6a.58.58,0,0,1,0,.48l-1.48.1c-.66,0-1.43.32-2,.09-1-.45-2.26-1-2.62-1.88s-.13-2.67.5-3.08c1.78-1.18,1.43-2.76,1.56-4.36.15-1.77-.15-4,.8-5.19a7.65,7.65,0,0,0,1.75-5.66C253.88,118.29,253.92,116,253.9,113.64Z"/><path class="cls-64" d="M283,81.71c-.21,1.32-.27,2.74-2.05,3-2.63,1.86-5.49,3.48-7.85,5.64-4.32,3.94-8.35,8.19-12.49,12.32l-1.2-.07c2.57-3.12,4.76-6.68,7.79-9.24C272.16,89.13,277.68,85.56,283,81.71Z"/><path class="cls-65" d="M246.43,100.92l1,1.3q-.23,4.95-.43,9.9c-.41-.41-1.14-.79-1.17-1.22-.09-1.94,0-3.89,0-5.84l-1-2Z"/><path class="cls-66" d="M244.92,103.09l1,2L241,111.87l-.69-1.8Z"/><path class="cls-67" d="M259.39,102.59l1.2.07c-1.56,2.28-3.12,4.55-4.67,6.83l-1.08-1Z"/><path class="cls-47" d="M277.37,104.21l-13,19.89-1-1.14,13.47-21.11C277,102.64,277.21,103.43,277.37,104.21Z"/><path class="cls-68" d="M271.3,126.63c1.66-1.79,2.25-4.64,5.12-5.24C276,124.4,274.2,126.05,271.3,126.63Z"/><path class="cls-69" d="M245.92,157.07l4.06-9,2.11-.26-4.53,9.38Z"/><path class="cls-70" d="M234,159.57c-1.92,0-1.32-1.37-1-2.25.12-.3,1.2-.2,1.85-.28l-.75,1.61Z"/><path class="cls-71" d="M255.41,140.6c-.62,1.49-1.25,3-1.88,4.46l-2.24.57,2.64-4.93Z"/><path class="cls-72" d="M263.4,123l1,1.14q-4.5,8-9,16l-1-1.6a.61.61,0,0,1,0-.3l.61-1.1q3.71-6.39,7.42-12.78C262.7,123.86,263.07,123.42,263.4,123Z"/></g></g></svg>